%TF.GenerationSoftware,KiCad,Pcbnew,10.0.6*%
%TF.CreationDate,2026-10-06T16:55:34-07:00*%
%TF.ProjectId,BattSense_AFE,42617474-5365-46e7-9365-5f4146452e6b,rev?*%
%TF.SameCoordinates,Original*%
%TF.FileFunction,Copper,L2,Bot*%
%TF.FilePolarity,Positive*%
%FSLAX46Y46*%
G04 Gerber Fmt 4.6, Leading zero omitted, Abs format (unit mm)*
G04 Created by KiCad (PCBNEW 10.0.6) date 2026-10-06 16:55:34*
%MOMM*%
%LPD*%
G01*
G04 APERTURE LIST*
%TA.AperFunction,ComponentPad*%
%ADD10C,1.700000*%
%TD*%
%TA.AperFunction,ComponentPad*%
%ADD11R,1.700000X1.700000*%
%TD*%
%TA.AperFunction,ComponentPad*%
%ADD12C,1.600000*%
%TD*%
G04 APERTURE END LIST*
D10*
%TO.P,J1,2,Pin_2_2*%
%TO.N,GND*%
X138620000Y-146140000D03*
D11*
%TO.P,J1,1,Pin_1_1*%
%TO.N,/VBAT*%
X141160000Y-146140000D03*
%TD*%
D12*
%TO.P,R2,1*%
%TO.N,Net-(R1-Pad2)*%
X129780000Y-140140000D03*
%TO.P,R2,2*%
%TO.N,Net-(R2-Pad2)*%
X119620000Y-140140000D03*
%TD*%
%TO.P,R1,1*%
%TO.N,/VBAT*%
X144620000Y-140140000D03*
%TO.P,R1,2*%
%TO.N,Net-(R1-Pad2)*%
X134460000Y-140140000D03*
%TD*%
%TO.P,R3,2*%
%TO.N,/ADC_SENSE*%
X104540000Y-140140000D03*
%TO.P,R3,1*%
%TO.N,Net-(R2-Pad2)*%
X114700000Y-140140000D03*
%TD*%
%TO.P,R4,2*%
%TO.N,Net-(R4-Pad2)*%
X104620000Y-146140000D03*
%TO.P,R4,1*%
%TO.N,/ADC_SENSE*%
X114780000Y-146140000D03*
%TD*%
%TO.P,R5,2*%
%TO.N,GND*%
X119620000Y-146140000D03*
%TO.P,R5,1*%
%TO.N,Net-(R4-Pad2)*%
X129780000Y-146140000D03*
%TD*%
D11*
%TO.P,J4,1,Pin_1_1*%
%TO.N,GND*%
X125380000Y-102500000D03*
D10*
%TO.P,J4,2,Pin_2_2*%
%TO.N,/+3.3V*%
X127920000Y-102500000D03*
%TO.P,J4,3,Pin_3_3*%
%TO.N,/OLED_SCL*%
X130460000Y-102500000D03*
%TO.P,J4,4,Pin_4_4*%
%TO.N,/OLED_SDA*%
X133000000Y-102500000D03*
%TD*%
D11*
%TO.P,J3,1,Pin_1_1*%
%TO.N,unconnected-(J3-Pin_1-Pad1)*%
X147120000Y-131500000D03*
D10*
%TO.P,J3,2,Pin_2_2*%
%TO.N,/OLED_SCL*%
X144580000Y-131500000D03*
%TO.P,J3,3,Pin_3_3*%
%TO.N,unconnected-(J3-Pin_3-Pad3)*%
X142040000Y-131500000D03*
%TO.P,J3,4,Pin_4_4*%
%TO.N,unconnected-(J3-Pin_4-Pad4)*%
X139500000Y-131500000D03*
%TO.P,J3,5,Pin_5_5*%
%TO.N,/OLED_SDA*%
X136960000Y-131500000D03*
%TO.P,J3,6,Pin_6_6*%
%TO.N,unconnected-(J3-Pin_6-Pad6)*%
X134420000Y-131500000D03*
%TO.P,J3,7,Pin_7_7*%
%TO.N,unconnected-(J3-Pin_7-Pad7)*%
X131880000Y-131500000D03*
%TO.P,J3,8,Pin_8_8*%
%TO.N,unconnected-(J3-Pin_8-Pad8)*%
X129340000Y-131500000D03*
%TO.P,J3,9,Pin_9_9*%
%TO.N,unconnected-(J3-Pin_9-Pad9)*%
X126800000Y-131500000D03*
%TO.P,J3,10,Pin_10_10*%
%TO.N,unconnected-(J3-Pin_10-Pad10)*%
X124260000Y-131500000D03*
%TO.P,J3,11,Pin_11_11*%
%TO.N,unconnected-(J3-Pin_11-Pad11)*%
X121720000Y-131500000D03*
%TO.P,J3,12,Pin_12_12*%
%TO.N,unconnected-(J3-Pin_12-Pad12)*%
X119180000Y-131500000D03*
%TO.P,J3,13,Pin_13_13*%
%TO.N,unconnected-(J3-Pin_13-Pad13)*%
X116640000Y-131500000D03*
%TO.P,J3,14,Pin_14_14*%
%TO.N,GND*%
X114100000Y-131500000D03*
%TO.P,J3,15,Pin_15_15*%
%TO.N,/+3.3V*%
X111560000Y-131500000D03*
%TD*%
D11*
%TO.P,J2,1,Pin_1_1*%
%TO.N,unconnected-(J2-Pin_1-Pad1)*%
X147120000Y-108640000D03*
D10*
%TO.P,J2,2,Pin_2_2*%
%TO.N,unconnected-(J2-Pin_2-Pad2)*%
X144580000Y-108640000D03*
%TO.P,J2,3,Pin_3_3*%
%TO.N,unconnected-(J2-Pin_3-Pad3)*%
X142040000Y-108640000D03*
%TO.P,J2,4,Pin_4_4*%
%TO.N,/ADC_SENSE*%
X139500000Y-108640000D03*
%TO.P,J2,5,Pin_5_5*%
%TO.N,unconnected-(J2-Pin_5-Pad5)*%
X136960000Y-108640000D03*
%TO.P,J2,6,Pin_6_6*%
%TO.N,unconnected-(J2-Pin_6-Pad6)*%
X134420000Y-108640000D03*
%TO.P,J2,7,Pin_7_7*%
%TO.N,unconnected-(J2-Pin_7-Pad7)*%
X131880000Y-108640000D03*
%TO.P,J2,8,Pin_8_8*%
%TO.N,unconnected-(J2-Pin_8-Pad8)*%
X129340000Y-108640000D03*
%TO.P,J2,9,Pin_9_9*%
%TO.N,unconnected-(J2-Pin_9-Pad9)*%
X126800000Y-108640000D03*
%TO.P,J2,10,Pin_10_10*%
%TO.N,unconnected-(J2-Pin_10-Pad10)*%
X124260000Y-108640000D03*
%TO.P,J2,11,Pin_11_11*%
%TO.N,unconnected-(J2-Pin_11-Pad11)*%
X121720000Y-108640000D03*
%TO.P,J2,12,Pin_12_12*%
%TO.N,unconnected-(J2-Pin_12-Pad12)*%
X119180000Y-108640000D03*
%TO.P,J2,13,Pin_13_13*%
%TO.N,unconnected-(J2-Pin_13-Pad13)*%
X116640000Y-108640000D03*
%TO.P,J2,14,Pin_14_14*%
%TO.N,GND*%
X114100000Y-108640000D03*
%TO.P,J2,15,Pin_15_15*%
%TO.N,unconnected-(J2-Pin_15-Pad15)*%
X111560000Y-108640000D03*
%TD*%
%TA.AperFunction,Conductor*%
%TO.N,GND*%
G36*
X159442539Y-100520185D02*
G01*
X159488294Y-100572989D01*
X159499500Y-100624500D01*
X159499500Y-149375500D01*
X159479815Y-149442539D01*
X159427011Y-149488294D01*
X159375500Y-149499500D01*
X100624500Y-149499500D01*
X100557461Y-149479815D01*
X100511706Y-149427011D01*
X100500500Y-149375500D01*
X100500500Y-146037648D01*
X103319500Y-146037648D01*
X103319500Y-146242351D01*
X103351522Y-146444534D01*
X103414781Y-146639223D01*
X103478691Y-146764653D01*
X103507585Y-146821359D01*
X103507715Y-146821613D01*
X103628028Y-146987213D01*
X103772786Y-147131971D01*
X103910928Y-147232335D01*
X103938390Y-147252287D01*
X104021481Y-147294624D01*
X104120776Y-147345218D01*
X104120778Y-147345218D01*
X104120781Y-147345220D01*
X104225137Y-147379127D01*
X104315465Y-147408477D01*
X104416557Y-147424488D01*
X104517648Y-147440500D01*
X104517649Y-147440500D01*
X104722351Y-147440500D01*
X104722352Y-147440500D01*
X104924534Y-147408477D01*
X105119219Y-147345220D01*
X105301610Y-147252287D01*
X105394590Y-147184732D01*
X105467213Y-147131971D01*
X105467215Y-147131968D01*
X105467219Y-147131966D01*
X105611966Y-146987219D01*
X105611968Y-146987215D01*
X105611971Y-146987213D01*
X105674087Y-146901716D01*
X105732287Y-146821610D01*
X105825220Y-146639219D01*
X105888477Y-146444534D01*
X105920500Y-146242352D01*
X105920500Y-146037648D01*
X113479500Y-146037648D01*
X113479500Y-146242351D01*
X113511522Y-146444534D01*
X113574781Y-146639223D01*
X113638691Y-146764653D01*
X113667585Y-146821359D01*
X113667715Y-146821613D01*
X113788028Y-146987213D01*
X113932786Y-147131971D01*
X114070928Y-147232335D01*
X114098390Y-147252287D01*
X114181481Y-147294624D01*
X114280776Y-147345218D01*
X114280778Y-147345218D01*
X114280781Y-147345220D01*
X114385137Y-147379127D01*
X114475465Y-147408477D01*
X114576557Y-147424488D01*
X114677648Y-147440500D01*
X114677649Y-147440500D01*
X114882351Y-147440500D01*
X114882352Y-147440500D01*
X115084534Y-147408477D01*
X115279219Y-147345220D01*
X115461610Y-147252287D01*
X115554590Y-147184732D01*
X115627213Y-147131971D01*
X115627215Y-147131968D01*
X115627219Y-147131966D01*
X115771966Y-146987219D01*
X115771968Y-146987215D01*
X115771971Y-146987213D01*
X115834087Y-146901716D01*
X115892287Y-146821610D01*
X115985220Y-146639219D01*
X116048477Y-146444534D01*
X116080500Y-146242352D01*
X116080500Y-146037682D01*
X118320000Y-146037682D01*
X118320000Y-146242317D01*
X118352009Y-146444417D01*
X118415244Y-146639031D01*
X118508141Y-146821350D01*
X118508147Y-146821359D01*
X118540523Y-146865921D01*
X118540524Y-146865922D01*
X119220000Y-146186446D01*
X119220000Y-146192661D01*
X119247259Y-146294394D01*
X119299920Y-146385606D01*
X119374394Y-146460080D01*
X119465606Y-146512741D01*
X119567339Y-146540000D01*
X119573553Y-146540000D01*
X118894076Y-147219474D01*
X118938650Y-147251859D01*
X119120968Y-147344755D01*
X119315582Y-147407990D01*
X119517683Y-147440000D01*
X119722317Y-147440000D01*
X119924417Y-147407990D01*
X120119031Y-147344755D01*
X120301349Y-147251859D01*
X120345921Y-147219474D01*
X119666447Y-146540000D01*
X119672661Y-146540000D01*
X119774394Y-146512741D01*
X119865606Y-146460080D01*
X119940080Y-146385606D01*
X119992741Y-146294394D01*
X120020000Y-146192661D01*
X120020000Y-146186447D01*
X120699474Y-146865921D01*
X120731859Y-146821349D01*
X120824755Y-146639031D01*
X120887990Y-146444417D01*
X120920000Y-146242317D01*
X120920000Y-146037682D01*
X120919995Y-146037648D01*
X128479500Y-146037648D01*
X128479500Y-146242351D01*
X128511522Y-146444534D01*
X128574781Y-146639223D01*
X128638691Y-146764653D01*
X128667585Y-146821359D01*
X128667715Y-146821613D01*
X128788028Y-146987213D01*
X128932786Y-147131971D01*
X129070928Y-147232335D01*
X129098390Y-147252287D01*
X129181481Y-147294624D01*
X129280776Y-147345218D01*
X129280778Y-147345218D01*
X129280781Y-147345220D01*
X129385137Y-147379127D01*
X129475465Y-147408477D01*
X129576557Y-147424488D01*
X129677648Y-147440500D01*
X129677649Y-147440500D01*
X129882351Y-147440500D01*
X129882352Y-147440500D01*
X130084534Y-147408477D01*
X130279219Y-147345220D01*
X130461610Y-147252287D01*
X130554590Y-147184732D01*
X130627213Y-147131971D01*
X130627215Y-147131968D01*
X130627219Y-147131966D01*
X130771966Y-146987219D01*
X130771968Y-146987215D01*
X130771971Y-146987213D01*
X130834087Y-146901716D01*
X130892287Y-146821610D01*
X130985220Y-146639219D01*
X131048477Y-146444534D01*
X131080500Y-146242352D01*
X131080500Y-146037648D01*
X131079883Y-146033753D01*
X137270000Y-146033753D01*
X137270000Y-146246246D01*
X137303242Y-146456127D01*
X137303242Y-146456130D01*
X137368904Y-146658217D01*
X137465375Y-146847550D01*
X137504728Y-146901716D01*
X138137037Y-146269408D01*
X138154075Y-146332993D01*
X138219901Y-146447007D01*
X138312993Y-146540099D01*
X138427007Y-146605925D01*
X138490590Y-146622962D01*
X137858282Y-147255269D01*
X137858282Y-147255270D01*
X137912449Y-147294624D01*
X138101782Y-147391095D01*
X138303870Y-147456757D01*
X138513754Y-147490000D01*
X138726246Y-147490000D01*
X138936127Y-147456757D01*
X138936130Y-147456757D01*
X139138217Y-147391095D01*
X139327554Y-147294622D01*
X139381716Y-147255270D01*
X139381717Y-147255270D01*
X138749408Y-146622962D01*
X138812993Y-146605925D01*
X138927007Y-146540099D01*
X139020099Y-146447007D01*
X139085925Y-146332993D01*
X139102962Y-146269408D01*
X139773181Y-146939628D01*
X139806666Y-147000951D01*
X139809500Y-147027300D01*
X139809500Y-147037865D01*
X139809501Y-147037876D01*
X139815908Y-147097483D01*
X139866202Y-147232328D01*
X139866206Y-147232335D01*
X139952452Y-147347544D01*
X139952455Y-147347547D01*
X140067664Y-147433793D01*
X140067671Y-147433797D01*
X140202517Y-147484091D01*
X140202516Y-147484091D01*
X140209444Y-147484835D01*
X140262127Y-147490500D01*
X142057872Y-147490499D01*
X142117483Y-147484091D01*
X142252331Y-147433796D01*
X142367546Y-147347546D01*
X142453796Y-147232331D01*
X142504091Y-147097483D01*
X142510500Y-147037873D01*
X142510499Y-145878711D01*
X154149500Y-145878711D01*
X154149500Y-146121288D01*
X154181161Y-146361785D01*
X154243947Y-146596104D01*
X154336773Y-146820205D01*
X154336776Y-146820212D01*
X154458064Y-147030289D01*
X154458066Y-147030292D01*
X154458067Y-147030293D01*
X154605733Y-147222736D01*
X154605739Y-147222743D01*
X154777256Y-147394260D01*
X154777262Y-147394265D01*
X154969711Y-147541936D01*
X155179788Y-147663224D01*
X155403900Y-147756054D01*
X155638211Y-147818838D01*
X155818586Y-147842584D01*
X155878711Y-147850500D01*
X155878712Y-147850500D01*
X156121289Y-147850500D01*
X156169388Y-147844167D01*
X156361789Y-147818838D01*
X156596100Y-147756054D01*
X156820212Y-147663224D01*
X157030289Y-147541936D01*
X157222738Y-147394265D01*
X157394265Y-147222738D01*
X157541936Y-147030289D01*
X157663224Y-146820212D01*
X157756054Y-146596100D01*
X157818838Y-146361789D01*
X157850500Y-146121288D01*
X157850500Y-145878712D01*
X157818838Y-145638211D01*
X157756054Y-145403900D01*
X157663224Y-145179788D01*
X157541936Y-144969711D01*
X157466593Y-144871522D01*
X157394266Y-144777263D01*
X157394260Y-144777256D01*
X157222743Y-144605739D01*
X157222736Y-144605733D01*
X157030293Y-144458067D01*
X157030292Y-144458066D01*
X157030289Y-144458064D01*
X156820212Y-144336776D01*
X156820205Y-144336773D01*
X156596104Y-144243947D01*
X156361785Y-144181161D01*
X156121289Y-144149500D01*
X156121288Y-144149500D01*
X155878712Y-144149500D01*
X155878711Y-144149500D01*
X155638214Y-144181161D01*
X155403895Y-144243947D01*
X155179794Y-144336773D01*
X155179785Y-144336777D01*
X154969706Y-144458067D01*
X154777263Y-144605733D01*
X154777256Y-144605739D01*
X154605739Y-144777256D01*
X154605733Y-144777263D01*
X154458067Y-144969706D01*
X154458064Y-144969710D01*
X154458064Y-144969711D01*
X154441817Y-144997851D01*
X154336777Y-145179785D01*
X154336773Y-145179794D01*
X154243947Y-145403895D01*
X154181161Y-145638214D01*
X154149500Y-145878711D01*
X142510499Y-145878711D01*
X142510499Y-145242128D01*
X142504091Y-145182517D01*
X142503075Y-145179794D01*
X142453797Y-145047671D01*
X142453793Y-145047664D01*
X142367547Y-144932455D01*
X142367544Y-144932452D01*
X142252335Y-144846206D01*
X142252328Y-144846202D01*
X142117482Y-144795908D01*
X142117483Y-144795908D01*
X142057883Y-144789501D01*
X142057881Y-144789500D01*
X142057873Y-144789500D01*
X142057864Y-144789500D01*
X140262129Y-144789500D01*
X140262123Y-144789501D01*
X140202516Y-144795908D01*
X140067671Y-144846202D01*
X140067664Y-144846206D01*
X139952455Y-144932452D01*
X139952452Y-144932455D01*
X139866206Y-145047664D01*
X139866202Y-145047671D01*
X139815908Y-145182517D01*
X139809501Y-145242116D01*
X139809501Y-145242123D01*
X139809500Y-145242135D01*
X139809500Y-145252690D01*
X139789815Y-145319729D01*
X139773181Y-145340371D01*
X139102962Y-146010590D01*
X139085925Y-145947007D01*
X139020099Y-145832993D01*
X138927007Y-145739901D01*
X138812993Y-145674075D01*
X138749409Y-145657037D01*
X139381716Y-145024728D01*
X139327550Y-144985375D01*
X139138217Y-144888904D01*
X138936129Y-144823242D01*
X138726246Y-144790000D01*
X138513754Y-144790000D01*
X138303872Y-144823242D01*
X138303869Y-144823242D01*
X138101782Y-144888904D01*
X137912439Y-144985380D01*
X137858282Y-145024727D01*
X137858282Y-145024728D01*
X138490591Y-145657037D01*
X138427007Y-145674075D01*
X138312993Y-145739901D01*
X138219901Y-145832993D01*
X138154075Y-145947007D01*
X138137037Y-146010591D01*
X137504728Y-145378282D01*
X137504727Y-145378282D01*
X137465380Y-145432439D01*
X137368904Y-145621782D01*
X137303242Y-145823869D01*
X137303242Y-145823872D01*
X137270000Y-146033753D01*
X131079883Y-146033753D01*
X131055326Y-145878711D01*
X131048477Y-145835465D01*
X130996038Y-145674075D01*
X130985220Y-145640781D01*
X130985218Y-145640778D01*
X130985218Y-145640776D01*
X130892419Y-145458650D01*
X130892287Y-145458390D01*
X130860092Y-145414077D01*
X130771971Y-145292786D01*
X130627213Y-145148028D01*
X130461613Y-145027715D01*
X130461612Y-145027714D01*
X130461610Y-145027713D01*
X130378527Y-144985380D01*
X130279223Y-144934781D01*
X130084534Y-144871522D01*
X129909995Y-144843878D01*
X129882352Y-144839500D01*
X129677648Y-144839500D01*
X129653329Y-144843351D01*
X129475465Y-144871522D01*
X129280776Y-144934781D01*
X129098386Y-145027715D01*
X128932786Y-145148028D01*
X128788028Y-145292786D01*
X128667715Y-145458386D01*
X128574781Y-145640776D01*
X128511522Y-145835465D01*
X128479500Y-146037648D01*
X120919995Y-146037648D01*
X120887990Y-145835582D01*
X120824755Y-145640968D01*
X120731859Y-145458650D01*
X120699474Y-145414077D01*
X120699474Y-145414076D01*
X120020000Y-146093551D01*
X120020000Y-146087339D01*
X119992741Y-145985606D01*
X119940080Y-145894394D01*
X119865606Y-145819920D01*
X119774394Y-145767259D01*
X119672661Y-145740000D01*
X119666446Y-145740000D01*
X120345922Y-145060524D01*
X120345921Y-145060523D01*
X120301359Y-145028147D01*
X120301350Y-145028141D01*
X120119031Y-144935244D01*
X119924417Y-144872009D01*
X119722317Y-144840000D01*
X119517683Y-144840000D01*
X119315582Y-144872009D01*
X119120968Y-144935244D01*
X118938644Y-145028143D01*
X118894077Y-145060523D01*
X118894077Y-145060524D01*
X119573554Y-145740000D01*
X119567339Y-145740000D01*
X119465606Y-145767259D01*
X119374394Y-145819920D01*
X119299920Y-145894394D01*
X119247259Y-145985606D01*
X119220000Y-146087339D01*
X119220000Y-146093553D01*
X118540524Y-145414077D01*
X118540523Y-145414077D01*
X118508143Y-145458644D01*
X118415244Y-145640968D01*
X118352009Y-145835582D01*
X118320000Y-146037682D01*
X116080500Y-146037682D01*
X116080500Y-146037648D01*
X116066144Y-145947007D01*
X116048477Y-145835465D01*
X115996038Y-145674075D01*
X115985220Y-145640781D01*
X115985218Y-145640778D01*
X115985218Y-145640776D01*
X115892419Y-145458650D01*
X115892287Y-145458390D01*
X115860092Y-145414077D01*
X115771971Y-145292786D01*
X115627213Y-145148028D01*
X115461613Y-145027715D01*
X115461612Y-145027714D01*
X115461610Y-145027713D01*
X115378527Y-144985380D01*
X115279223Y-144934781D01*
X115084534Y-144871522D01*
X114909995Y-144843878D01*
X114882352Y-144839500D01*
X114677648Y-144839500D01*
X114653329Y-144843351D01*
X114475465Y-144871522D01*
X114280776Y-144934781D01*
X114098386Y-145027715D01*
X113932786Y-145148028D01*
X113788028Y-145292786D01*
X113667715Y-145458386D01*
X113574781Y-145640776D01*
X113511522Y-145835465D01*
X113479500Y-146037648D01*
X105920500Y-146037648D01*
X105906144Y-145947007D01*
X105888477Y-145835465D01*
X105836038Y-145674075D01*
X105825220Y-145640781D01*
X105825218Y-145640778D01*
X105825218Y-145640776D01*
X105732419Y-145458650D01*
X105732287Y-145458390D01*
X105700092Y-145414077D01*
X105611971Y-145292786D01*
X105467213Y-145148028D01*
X105301613Y-145027715D01*
X105301612Y-145027714D01*
X105301610Y-145027713D01*
X105218527Y-144985380D01*
X105119223Y-144934781D01*
X104924534Y-144871522D01*
X104749995Y-144843878D01*
X104722352Y-144839500D01*
X104517648Y-144839500D01*
X104493329Y-144843351D01*
X104315465Y-144871522D01*
X104120776Y-144934781D01*
X103938386Y-145027715D01*
X103772786Y-145148028D01*
X103628028Y-145292786D01*
X103507715Y-145458386D01*
X103414781Y-145640776D01*
X103351522Y-145835465D01*
X103319500Y-146037648D01*
X100500500Y-146037648D01*
X100500500Y-140037648D01*
X103239500Y-140037648D01*
X103239500Y-140242351D01*
X103271522Y-140444534D01*
X103334781Y-140639223D01*
X103427715Y-140821613D01*
X103548028Y-140987213D01*
X103692786Y-141131971D01*
X103847749Y-141244556D01*
X103858390Y-141252287D01*
X103974607Y-141311503D01*
X104040776Y-141345218D01*
X104040778Y-141345218D01*
X104040781Y-141345220D01*
X104145137Y-141379127D01*
X104235465Y-141408477D01*
X104336557Y-141424488D01*
X104437648Y-141440500D01*
X104437649Y-141440500D01*
X104642351Y-141440500D01*
X104642352Y-141440500D01*
X104844534Y-141408477D01*
X105039219Y-141345220D01*
X105221610Y-141252287D01*
X105314590Y-141184732D01*
X105387213Y-141131971D01*
X105387215Y-141131968D01*
X105387219Y-141131966D01*
X105531966Y-140987219D01*
X105531968Y-140987215D01*
X105531971Y-140987213D01*
X105584732Y-140914590D01*
X105652287Y-140821610D01*
X105745220Y-140639219D01*
X105808477Y-140444534D01*
X105840500Y-140242352D01*
X105840500Y-140037648D01*
X113399500Y-140037648D01*
X113399500Y-140242351D01*
X113431522Y-140444534D01*
X113494781Y-140639223D01*
X113587715Y-140821613D01*
X113708028Y-140987213D01*
X113852786Y-141131971D01*
X114007749Y-141244556D01*
X114018390Y-141252287D01*
X114134607Y-141311503D01*
X114200776Y-141345218D01*
X114200778Y-141345218D01*
X114200781Y-141345220D01*
X114305137Y-141379127D01*
X114395465Y-141408477D01*
X114496557Y-141424488D01*
X114597648Y-141440500D01*
X114597649Y-141440500D01*
X114802351Y-141440500D01*
X114802352Y-141440500D01*
X115004534Y-141408477D01*
X115199219Y-141345220D01*
X115381610Y-141252287D01*
X115474590Y-141184732D01*
X115547213Y-141131971D01*
X115547215Y-141131968D01*
X115547219Y-141131966D01*
X115691966Y-140987219D01*
X115691968Y-140987215D01*
X115691971Y-140987213D01*
X115744732Y-140914590D01*
X115812287Y-140821610D01*
X115905220Y-140639219D01*
X115968477Y-140444534D01*
X116000500Y-140242352D01*
X116000500Y-140037648D01*
X118319500Y-140037648D01*
X118319500Y-140242351D01*
X118351522Y-140444534D01*
X118414781Y-140639223D01*
X118507715Y-140821613D01*
X118628028Y-140987213D01*
X118772786Y-141131971D01*
X118927749Y-141244556D01*
X118938390Y-141252287D01*
X119054607Y-141311503D01*
X119120776Y-141345218D01*
X119120778Y-141345218D01*
X119120781Y-141345220D01*
X119225137Y-141379127D01*
X119315465Y-141408477D01*
X119416557Y-141424488D01*
X119517648Y-141440500D01*
X119517649Y-141440500D01*
X119722351Y-141440500D01*
X119722352Y-141440500D01*
X119924534Y-141408477D01*
X120119219Y-141345220D01*
X120301610Y-141252287D01*
X120394590Y-141184732D01*
X120467213Y-141131971D01*
X120467215Y-141131968D01*
X120467219Y-141131966D01*
X120611966Y-140987219D01*
X120611968Y-140987215D01*
X120611971Y-140987213D01*
X120664732Y-140914590D01*
X120732287Y-140821610D01*
X120825220Y-140639219D01*
X120888477Y-140444534D01*
X120920500Y-140242352D01*
X120920500Y-140037648D01*
X128479500Y-140037648D01*
X128479500Y-140242351D01*
X128511522Y-140444534D01*
X128574781Y-140639223D01*
X128667715Y-140821613D01*
X128788028Y-140987213D01*
X128932786Y-141131971D01*
X129087749Y-141244556D01*
X129098390Y-141252287D01*
X129214607Y-141311503D01*
X129280776Y-141345218D01*
X129280778Y-141345218D01*
X129280781Y-141345220D01*
X129385137Y-141379127D01*
X129475465Y-141408477D01*
X129576557Y-141424488D01*
X129677648Y-141440500D01*
X129677649Y-141440500D01*
X129882351Y-141440500D01*
X129882352Y-141440500D01*
X130084534Y-141408477D01*
X130279219Y-141345220D01*
X130461610Y-141252287D01*
X130554590Y-141184732D01*
X130627213Y-141131971D01*
X130627215Y-141131968D01*
X130627219Y-141131966D01*
X130771966Y-140987219D01*
X130771968Y-140987215D01*
X130771971Y-140987213D01*
X130824732Y-140914590D01*
X130892287Y-140821610D01*
X130985220Y-140639219D01*
X131048477Y-140444534D01*
X131080500Y-140242352D01*
X131080500Y-140037648D01*
X133159500Y-140037648D01*
X133159500Y-140242351D01*
X133191522Y-140444534D01*
X133254781Y-140639223D01*
X133347715Y-140821613D01*
X133468028Y-140987213D01*
X133612786Y-141131971D01*
X133767749Y-141244556D01*
X133778390Y-141252287D01*
X133894607Y-141311503D01*
X133960776Y-141345218D01*
X133960778Y-141345218D01*
X133960781Y-141345220D01*
X134065137Y-141379127D01*
X134155465Y-141408477D01*
X134256557Y-141424488D01*
X134357648Y-141440500D01*
X134357649Y-141440500D01*
X134562351Y-141440500D01*
X134562352Y-141440500D01*
X134764534Y-141408477D01*
X134959219Y-141345220D01*
X135141610Y-141252287D01*
X135234590Y-141184732D01*
X135307213Y-141131971D01*
X135307215Y-141131968D01*
X135307219Y-141131966D01*
X135451966Y-140987219D01*
X135451968Y-140987215D01*
X135451971Y-140987213D01*
X135504732Y-140914590D01*
X135572287Y-140821610D01*
X135665220Y-140639219D01*
X135728477Y-140444534D01*
X135760500Y-140242352D01*
X135760500Y-140037648D01*
X143319500Y-140037648D01*
X143319500Y-140242351D01*
X143351522Y-140444534D01*
X143414781Y-140639223D01*
X143507715Y-140821613D01*
X143628028Y-140987213D01*
X143772786Y-141131971D01*
X143927749Y-141244556D01*
X143938390Y-141252287D01*
X144054607Y-141311503D01*
X144120776Y-141345218D01*
X144120778Y-141345218D01*
X144120781Y-141345220D01*
X144225137Y-141379127D01*
X144315465Y-141408477D01*
X144416557Y-141424488D01*
X144517648Y-141440500D01*
X144517649Y-141440500D01*
X144722351Y-141440500D01*
X144722352Y-141440500D01*
X144924534Y-141408477D01*
X145119219Y-141345220D01*
X145301610Y-141252287D01*
X145394590Y-141184732D01*
X145467213Y-141131971D01*
X145467215Y-141131968D01*
X145467219Y-141131966D01*
X145611966Y-140987219D01*
X145611968Y-140987215D01*
X145611971Y-140987213D01*
X145664732Y-140914590D01*
X145732287Y-140821610D01*
X145825220Y-140639219D01*
X145888477Y-140444534D01*
X145920500Y-140242352D01*
X145920500Y-140037648D01*
X145888477Y-139835466D01*
X145825220Y-139640781D01*
X145825218Y-139640778D01*
X145825218Y-139640776D01*
X145791503Y-139574607D01*
X145732287Y-139458390D01*
X145724556Y-139447749D01*
X145611971Y-139292786D01*
X145467213Y-139148028D01*
X145301613Y-139027715D01*
X145301612Y-139027714D01*
X145301610Y-139027713D01*
X145244653Y-138998691D01*
X145119223Y-138934781D01*
X144924534Y-138871522D01*
X144749995Y-138843878D01*
X144722352Y-138839500D01*
X144517648Y-138839500D01*
X144493329Y-138843351D01*
X144315465Y-138871522D01*
X144120776Y-138934781D01*
X143938386Y-139027715D01*
X143772786Y-139148028D01*
X143628028Y-139292786D01*
X143507715Y-139458386D01*
X143414781Y-139640776D01*
X143351522Y-139835465D01*
X143319500Y-140037648D01*
X135760500Y-140037648D01*
X135728477Y-139835466D01*
X135665220Y-139640781D01*
X135665218Y-139640778D01*
X135665218Y-139640776D01*
X135631503Y-139574607D01*
X135572287Y-139458390D01*
X135564556Y-139447749D01*
X135451971Y-139292786D01*
X135307213Y-139148028D01*
X135141613Y-139027715D01*
X135141612Y-139027714D01*
X135141610Y-139027713D01*
X135084653Y-138998691D01*
X134959223Y-138934781D01*
X134764534Y-138871522D01*
X134589995Y-138843878D01*
X134562352Y-138839500D01*
X134357648Y-138839500D01*
X134333329Y-138843351D01*
X134155465Y-138871522D01*
X133960776Y-138934781D01*
X133778386Y-139027715D01*
X133612786Y-139148028D01*
X133468028Y-139292786D01*
X133347715Y-139458386D01*
X133254781Y-139640776D01*
X133191522Y-139835465D01*
X133159500Y-140037648D01*
X131080500Y-140037648D01*
X131048477Y-139835466D01*
X130985220Y-139640781D01*
X130985218Y-139640778D01*
X130985218Y-139640776D01*
X130951503Y-139574607D01*
X130892287Y-139458390D01*
X130884556Y-139447749D01*
X130771971Y-139292786D01*
X130627213Y-139148028D01*
X130461613Y-139027715D01*
X130461612Y-139027714D01*
X130461610Y-139027713D01*
X130404653Y-138998691D01*
X130279223Y-138934781D01*
X130084534Y-138871522D01*
X129909995Y-138843878D01*
X129882352Y-138839500D01*
X129677648Y-138839500D01*
X129653329Y-138843351D01*
X129475465Y-138871522D01*
X129280776Y-138934781D01*
X129098386Y-139027715D01*
X128932786Y-139148028D01*
X128788028Y-139292786D01*
X128667715Y-139458386D01*
X128574781Y-139640776D01*
X128511522Y-139835465D01*
X128479500Y-140037648D01*
X120920500Y-140037648D01*
X120888477Y-139835466D01*
X120825220Y-139640781D01*
X120825218Y-139640778D01*
X120825218Y-139640776D01*
X120791503Y-139574607D01*
X120732287Y-139458390D01*
X120724556Y-139447749D01*
X120611971Y-139292786D01*
X120467213Y-139148028D01*
X120301613Y-139027715D01*
X120301612Y-139027714D01*
X120301610Y-139027713D01*
X120244653Y-138998691D01*
X120119223Y-138934781D01*
X119924534Y-138871522D01*
X119749995Y-138843878D01*
X119722352Y-138839500D01*
X119517648Y-138839500D01*
X119493329Y-138843351D01*
X119315465Y-138871522D01*
X119120776Y-138934781D01*
X118938386Y-139027715D01*
X118772786Y-139148028D01*
X118628028Y-139292786D01*
X118507715Y-139458386D01*
X118414781Y-139640776D01*
X118351522Y-139835465D01*
X118319500Y-140037648D01*
X116000500Y-140037648D01*
X115968477Y-139835466D01*
X115905220Y-139640781D01*
X115905218Y-139640778D01*
X115905218Y-139640776D01*
X115871503Y-139574607D01*
X115812287Y-139458390D01*
X115804556Y-139447749D01*
X115691971Y-139292786D01*
X115547213Y-139148028D01*
X115381613Y-139027715D01*
X115381612Y-139027714D01*
X115381610Y-139027713D01*
X115324653Y-138998691D01*
X115199223Y-138934781D01*
X115004534Y-138871522D01*
X114829995Y-138843878D01*
X114802352Y-138839500D01*
X114597648Y-138839500D01*
X114573329Y-138843351D01*
X114395465Y-138871522D01*
X114200776Y-138934781D01*
X114018386Y-139027715D01*
X113852786Y-139148028D01*
X113708028Y-139292786D01*
X113587715Y-139458386D01*
X113494781Y-139640776D01*
X113431522Y-139835465D01*
X113399500Y-140037648D01*
X105840500Y-140037648D01*
X105808477Y-139835466D01*
X105745220Y-139640781D01*
X105745218Y-139640778D01*
X105745218Y-139640776D01*
X105711503Y-139574607D01*
X105652287Y-139458390D01*
X105644556Y-139447749D01*
X105531971Y-139292786D01*
X105387213Y-139148028D01*
X105221613Y-139027715D01*
X105221612Y-139027714D01*
X105221610Y-139027713D01*
X105164653Y-138998691D01*
X105039223Y-138934781D01*
X104844534Y-138871522D01*
X104669995Y-138843878D01*
X104642352Y-138839500D01*
X104437648Y-138839500D01*
X104413329Y-138843351D01*
X104235465Y-138871522D01*
X104040776Y-138934781D01*
X103858386Y-139027715D01*
X103692786Y-139148028D01*
X103548028Y-139292786D01*
X103427715Y-139458386D01*
X103334781Y-139640776D01*
X103271522Y-139835465D01*
X103239500Y-140037648D01*
X100500500Y-140037648D01*
X100500500Y-131393713D01*
X110209500Y-131393713D01*
X110209500Y-131606286D01*
X110242753Y-131816239D01*
X110308444Y-132018414D01*
X110404951Y-132207820D01*
X110529890Y-132379786D01*
X110680213Y-132530109D01*
X110852179Y-132655048D01*
X110852181Y-132655049D01*
X110852184Y-132655051D01*
X111041588Y-132751557D01*
X111243757Y-132817246D01*
X111453713Y-132850500D01*
X111453714Y-132850500D01*
X111666286Y-132850500D01*
X111666287Y-132850500D01*
X111876243Y-132817246D01*
X112078412Y-132751557D01*
X112267816Y-132655051D01*
X112354138Y-132592335D01*
X112439786Y-132530109D01*
X112439788Y-132530106D01*
X112439792Y-132530104D01*
X112590104Y-132379792D01*
X112590106Y-132379788D01*
X112590109Y-132379786D01*
X112675890Y-132261717D01*
X112715051Y-132207816D01*
X112719793Y-132198508D01*
X112767763Y-132147711D01*
X112835583Y-132130911D01*
X112901719Y-132153445D01*
X112940763Y-132198500D01*
X112945373Y-132207547D01*
X112984728Y-132261716D01*
X113617037Y-131629408D01*
X113634075Y-131692993D01*
X113699901Y-131807007D01*
X113792993Y-131900099D01*
X113907007Y-131965925D01*
X113970590Y-131982962D01*
X113338282Y-132615269D01*
X113338282Y-132615270D01*
X113392449Y-132654624D01*
X113581782Y-132751095D01*
X113783870Y-132816757D01*
X113993754Y-132850000D01*
X114206246Y-132850000D01*
X114416127Y-132816757D01*
X114416130Y-132816757D01*
X114618217Y-132751095D01*
X114807554Y-132654622D01*
X114861716Y-132615270D01*
X114861717Y-132615270D01*
X114229408Y-131982962D01*
X114292993Y-131965925D01*
X114407007Y-131900099D01*
X114500099Y-131807007D01*
X114565925Y-131692993D01*
X114582962Y-131629408D01*
X115215270Y-132261717D01*
X115215270Y-132261716D01*
X115254622Y-132207555D01*
X115259232Y-132198507D01*
X115307205Y-132147709D01*
X115375025Y-132130912D01*
X115441161Y-132153447D01*
X115480204Y-132198504D01*
X115484949Y-132207817D01*
X115609890Y-132379786D01*
X115760213Y-132530109D01*
X115932179Y-132655048D01*
X115932181Y-132655049D01*
X115932184Y-132655051D01*
X116121588Y-132751557D01*
X116323757Y-132817246D01*
X116533713Y-132850500D01*
X116533714Y-132850500D01*
X116746286Y-132850500D01*
X116746287Y-132850500D01*
X116956243Y-132817246D01*
X117158412Y-132751557D01*
X117347816Y-132655051D01*
X117434138Y-132592335D01*
X117519786Y-132530109D01*
X117519788Y-132530106D01*
X117519792Y-132530104D01*
X117670104Y-132379792D01*
X117670106Y-132379788D01*
X117670109Y-132379786D01*
X117795048Y-132207820D01*
X117795047Y-132207820D01*
X117795051Y-132207816D01*
X117799514Y-132199054D01*
X117847488Y-132148259D01*
X117915308Y-132131463D01*
X117981444Y-132153999D01*
X118020486Y-132199056D01*
X118024951Y-132207820D01*
X118149890Y-132379786D01*
X118300213Y-132530109D01*
X118472179Y-132655048D01*
X118472181Y-132655049D01*
X118472184Y-132655051D01*
X118661588Y-132751557D01*
X118863757Y-132817246D01*
X119073713Y-132850500D01*
X119073714Y-132850500D01*
X119286286Y-132850500D01*
X119286287Y-132850500D01*
X119496243Y-132817246D01*
X119698412Y-132751557D01*
X119887816Y-132655051D01*
X119974138Y-132592335D01*
X120059786Y-132530109D01*
X120059788Y-132530106D01*
X120059792Y-132530104D01*
X120210104Y-132379792D01*
X120210106Y-132379788D01*
X120210109Y-132379786D01*
X120335048Y-132207820D01*
X120335047Y-132207820D01*
X120335051Y-132207816D01*
X120339514Y-132199054D01*
X120387488Y-132148259D01*
X120455308Y-132131463D01*
X120521444Y-132153999D01*
X120560486Y-132199056D01*
X120564951Y-132207820D01*
X120689890Y-132379786D01*
X120840213Y-132530109D01*
X121012179Y-132655048D01*
X121012181Y-132655049D01*
X121012184Y-132655051D01*
X121201588Y-132751557D01*
X121403757Y-132817246D01*
X121613713Y-132850500D01*
X121613714Y-132850500D01*
X121826286Y-132850500D01*
X121826287Y-132850500D01*
X122036243Y-132817246D01*
X122238412Y-132751557D01*
X122427816Y-132655051D01*
X122514138Y-132592335D01*
X122599786Y-132530109D01*
X122599788Y-132530106D01*
X122599792Y-132530104D01*
X122750104Y-132379792D01*
X122750106Y-132379788D01*
X122750109Y-132379786D01*
X122875048Y-132207820D01*
X122875047Y-132207820D01*
X122875051Y-132207816D01*
X122879514Y-132199054D01*
X122927488Y-132148259D01*
X122995308Y-132131463D01*
X123061444Y-132153999D01*
X123100486Y-132199056D01*
X123104951Y-132207820D01*
X123229890Y-132379786D01*
X123380213Y-132530109D01*
X123552179Y-132655048D01*
X123552181Y-132655049D01*
X123552184Y-132655051D01*
X123741588Y-132751557D01*
X123943757Y-132817246D01*
X124153713Y-132850500D01*
X124153714Y-132850500D01*
X124366286Y-132850500D01*
X124366287Y-132850500D01*
X124576243Y-132817246D01*
X124778412Y-132751557D01*
X124967816Y-132655051D01*
X125054138Y-132592335D01*
X125139786Y-132530109D01*
X125139788Y-132530106D01*
X125139792Y-132530104D01*
X125290104Y-132379792D01*
X125290106Y-132379788D01*
X125290109Y-132379786D01*
X125415048Y-132207820D01*
X125415047Y-132207820D01*
X125415051Y-132207816D01*
X125419514Y-132199054D01*
X125467488Y-132148259D01*
X125535308Y-132131463D01*
X125601444Y-132153999D01*
X125640486Y-132199056D01*
X125644951Y-132207820D01*
X125769890Y-132379786D01*
X125920213Y-132530109D01*
X126092179Y-132655048D01*
X126092181Y-132655049D01*
X126092184Y-132655051D01*
X126281588Y-132751557D01*
X126483757Y-132817246D01*
X126693713Y-132850500D01*
X126693714Y-132850500D01*
X126906286Y-132850500D01*
X126906287Y-132850500D01*
X127116243Y-132817246D01*
X127318412Y-132751557D01*
X127507816Y-132655051D01*
X127594138Y-132592335D01*
X127679786Y-132530109D01*
X127679788Y-132530106D01*
X127679792Y-132530104D01*
X127830104Y-132379792D01*
X127830106Y-132379788D01*
X127830109Y-132379786D01*
X127955048Y-132207820D01*
X127955047Y-132207820D01*
X127955051Y-132207816D01*
X127959514Y-132199054D01*
X128007488Y-132148259D01*
X128075308Y-132131463D01*
X128141444Y-132153999D01*
X128180486Y-132199056D01*
X128184951Y-132207820D01*
X128309890Y-132379786D01*
X128460213Y-132530109D01*
X128632179Y-132655048D01*
X128632181Y-132655049D01*
X128632184Y-132655051D01*
X128821588Y-132751557D01*
X129023757Y-132817246D01*
X129233713Y-132850500D01*
X129233714Y-132850500D01*
X129446286Y-132850500D01*
X129446287Y-132850500D01*
X129656243Y-132817246D01*
X129858412Y-132751557D01*
X130047816Y-132655051D01*
X130134138Y-132592335D01*
X130219786Y-132530109D01*
X130219788Y-132530106D01*
X130219792Y-132530104D01*
X130370104Y-132379792D01*
X130370106Y-132379788D01*
X130370109Y-132379786D01*
X130495048Y-132207820D01*
X130495047Y-132207820D01*
X130495051Y-132207816D01*
X130499514Y-132199054D01*
X130547488Y-132148259D01*
X130615308Y-132131463D01*
X130681444Y-132153999D01*
X130720486Y-132199056D01*
X130724951Y-132207820D01*
X130849890Y-132379786D01*
X131000213Y-132530109D01*
X131172179Y-132655048D01*
X131172181Y-132655049D01*
X131172184Y-132655051D01*
X131361588Y-132751557D01*
X131563757Y-132817246D01*
X131773713Y-132850500D01*
X131773714Y-132850500D01*
X131986286Y-132850500D01*
X131986287Y-132850500D01*
X132196243Y-132817246D01*
X132398412Y-132751557D01*
X132587816Y-132655051D01*
X132674138Y-132592335D01*
X132759786Y-132530109D01*
X132759788Y-132530106D01*
X132759792Y-132530104D01*
X132910104Y-132379792D01*
X132910106Y-132379788D01*
X132910109Y-132379786D01*
X133035048Y-132207820D01*
X133035047Y-132207820D01*
X133035051Y-132207816D01*
X133039514Y-132199054D01*
X133087488Y-132148259D01*
X133155308Y-132131463D01*
X133221444Y-132153999D01*
X133260486Y-132199056D01*
X133264951Y-132207820D01*
X133389890Y-132379786D01*
X133540213Y-132530109D01*
X133712179Y-132655048D01*
X133712181Y-132655049D01*
X133712184Y-132655051D01*
X133901588Y-132751557D01*
X134103757Y-132817246D01*
X134313713Y-132850500D01*
X134313714Y-132850500D01*
X134526286Y-132850500D01*
X134526287Y-132850500D01*
X134736243Y-132817246D01*
X134938412Y-132751557D01*
X135127816Y-132655051D01*
X135214138Y-132592335D01*
X135299786Y-132530109D01*
X135299788Y-132530106D01*
X135299792Y-132530104D01*
X135450104Y-132379792D01*
X135450106Y-132379788D01*
X135450109Y-132379786D01*
X135575048Y-132207820D01*
X135575047Y-132207820D01*
X135575051Y-132207816D01*
X135579514Y-132199054D01*
X135627488Y-132148259D01*
X135695308Y-132131463D01*
X135761444Y-132153999D01*
X135800486Y-132199056D01*
X135804951Y-132207820D01*
X135929890Y-132379786D01*
X136080213Y-132530109D01*
X136252179Y-132655048D01*
X136252181Y-132655049D01*
X136252184Y-132655051D01*
X136441588Y-132751557D01*
X136643757Y-132817246D01*
X136853713Y-132850500D01*
X136853714Y-132850500D01*
X137066286Y-132850500D01*
X137066287Y-132850500D01*
X137276243Y-132817246D01*
X137478412Y-132751557D01*
X137667816Y-132655051D01*
X137754138Y-132592335D01*
X137839786Y-132530109D01*
X137839788Y-132530106D01*
X137839792Y-132530104D01*
X137990104Y-132379792D01*
X137990106Y-132379788D01*
X137990109Y-132379786D01*
X138115048Y-132207820D01*
X138115047Y-132207820D01*
X138115051Y-132207816D01*
X138119514Y-132199054D01*
X138167488Y-132148259D01*
X138235308Y-132131463D01*
X138301444Y-132153999D01*
X138340486Y-132199056D01*
X138344951Y-132207820D01*
X138469890Y-132379786D01*
X138620213Y-132530109D01*
X138792179Y-132655048D01*
X138792181Y-132655049D01*
X138792184Y-132655051D01*
X138981588Y-132751557D01*
X139183757Y-132817246D01*
X139393713Y-132850500D01*
X139393714Y-132850500D01*
X139606286Y-132850500D01*
X139606287Y-132850500D01*
X139816243Y-132817246D01*
X140018412Y-132751557D01*
X140207816Y-132655051D01*
X140294138Y-132592335D01*
X140379786Y-132530109D01*
X140379788Y-132530106D01*
X140379792Y-132530104D01*
X140530104Y-132379792D01*
X140530106Y-132379788D01*
X140530109Y-132379786D01*
X140655048Y-132207820D01*
X140655047Y-132207820D01*
X140655051Y-132207816D01*
X140659514Y-132199054D01*
X140707488Y-132148259D01*
X140775308Y-132131463D01*
X140841444Y-132153999D01*
X140880486Y-132199056D01*
X140884951Y-132207820D01*
X141009890Y-132379786D01*
X141160213Y-132530109D01*
X141332179Y-132655048D01*
X141332181Y-132655049D01*
X141332184Y-132655051D01*
X141521588Y-132751557D01*
X141723757Y-132817246D01*
X141933713Y-132850500D01*
X141933714Y-132850500D01*
X142146286Y-132850500D01*
X142146287Y-132850500D01*
X142356243Y-132817246D01*
X142558412Y-132751557D01*
X142747816Y-132655051D01*
X142834138Y-132592335D01*
X142919786Y-132530109D01*
X142919788Y-132530106D01*
X142919792Y-132530104D01*
X143070104Y-132379792D01*
X143070106Y-132379788D01*
X143070109Y-132379786D01*
X143195048Y-132207820D01*
X143195047Y-132207820D01*
X143195051Y-132207816D01*
X143199514Y-132199054D01*
X143247488Y-132148259D01*
X143315308Y-132131463D01*
X143381444Y-132153999D01*
X143420486Y-132199056D01*
X143424951Y-132207820D01*
X143549890Y-132379786D01*
X143700213Y-132530109D01*
X143872179Y-132655048D01*
X143872181Y-132655049D01*
X143872184Y-132655051D01*
X144061588Y-132751557D01*
X144263757Y-132817246D01*
X144473713Y-132850500D01*
X144473714Y-132850500D01*
X144686286Y-132850500D01*
X144686287Y-132850500D01*
X144896243Y-132817246D01*
X145098412Y-132751557D01*
X145287816Y-132655051D01*
X145459792Y-132530104D01*
X145573329Y-132416566D01*
X145634648Y-132383084D01*
X145704340Y-132388068D01*
X145760274Y-132429939D01*
X145777189Y-132460917D01*
X145826202Y-132592328D01*
X145826206Y-132592335D01*
X145912452Y-132707544D01*
X145912455Y-132707547D01*
X146027664Y-132793793D01*
X146027671Y-132793797D01*
X146162517Y-132844091D01*
X146162516Y-132844091D01*
X146169444Y-132844835D01*
X146222127Y-132850500D01*
X148017872Y-132850499D01*
X148077483Y-132844091D01*
X148212331Y-132793796D01*
X148327546Y-132707546D01*
X148413796Y-132592331D01*
X148464091Y-132457483D01*
X148470500Y-132397873D01*
X148470499Y-130602128D01*
X148464091Y-130542517D01*
X148462810Y-130539083D01*
X148413797Y-130407671D01*
X148413793Y-130407664D01*
X148327547Y-130292455D01*
X148327544Y-130292452D01*
X148212335Y-130206206D01*
X148212328Y-130206202D01*
X148077482Y-130155908D01*
X148077483Y-130155908D01*
X148017883Y-130149501D01*
X148017881Y-130149500D01*
X148017873Y-130149500D01*
X148017864Y-130149500D01*
X146222129Y-130149500D01*
X146222123Y-130149501D01*
X146162516Y-130155908D01*
X146027671Y-130206202D01*
X146027664Y-130206206D01*
X145912455Y-130292452D01*
X145912452Y-130292455D01*
X145826206Y-130407664D01*
X145826203Y-130407669D01*
X145777189Y-130539083D01*
X145735317Y-130595016D01*
X145669853Y-130619433D01*
X145601580Y-130604581D01*
X145573326Y-130583430D01*
X145459786Y-130469890D01*
X145287820Y-130344951D01*
X145098414Y-130248444D01*
X145098413Y-130248443D01*
X145098412Y-130248443D01*
X144896243Y-130182754D01*
X144896241Y-130182753D01*
X144896240Y-130182753D01*
X144734957Y-130157208D01*
X144686287Y-130149500D01*
X144473713Y-130149500D01*
X144425042Y-130157208D01*
X144263760Y-130182753D01*
X144061585Y-130248444D01*
X143872179Y-130344951D01*
X143700213Y-130469890D01*
X143549890Y-130620213D01*
X143424949Y-130792182D01*
X143420484Y-130800946D01*
X143372509Y-130851742D01*
X143304688Y-130868536D01*
X143238553Y-130845998D01*
X143199516Y-130800946D01*
X143195050Y-130792182D01*
X143070109Y-130620213D01*
X142919786Y-130469890D01*
X142747820Y-130344951D01*
X142558414Y-130248444D01*
X142558413Y-130248443D01*
X142558412Y-130248443D01*
X142356243Y-130182754D01*
X142356241Y-130182753D01*
X142356240Y-130182753D01*
X142194957Y-130157208D01*
X142146287Y-130149500D01*
X141933713Y-130149500D01*
X141885042Y-130157208D01*
X141723760Y-130182753D01*
X141521585Y-130248444D01*
X141332179Y-130344951D01*
X141160213Y-130469890D01*
X141009890Y-130620213D01*
X140884949Y-130792182D01*
X140880484Y-130800946D01*
X140832509Y-130851742D01*
X140764688Y-130868536D01*
X140698553Y-130845998D01*
X140659516Y-130800946D01*
X140655050Y-130792182D01*
X140530109Y-130620213D01*
X140379786Y-130469890D01*
X140207820Y-130344951D01*
X140018414Y-130248444D01*
X140018413Y-130248443D01*
X140018412Y-130248443D01*
X139816243Y-130182754D01*
X139816241Y-130182753D01*
X139816240Y-130182753D01*
X139654957Y-130157208D01*
X139606287Y-130149500D01*
X139393713Y-130149500D01*
X139345042Y-130157208D01*
X139183760Y-130182753D01*
X138981585Y-130248444D01*
X138792179Y-130344951D01*
X138620213Y-130469890D01*
X138469890Y-130620213D01*
X138344949Y-130792182D01*
X138340484Y-130800946D01*
X138292509Y-130851742D01*
X138224688Y-130868536D01*
X138158553Y-130845998D01*
X138119516Y-130800946D01*
X138115050Y-130792182D01*
X137990109Y-130620213D01*
X137839786Y-130469890D01*
X137667820Y-130344951D01*
X137478414Y-130248444D01*
X137478413Y-130248443D01*
X137478412Y-130248443D01*
X137276243Y-130182754D01*
X137276241Y-130182753D01*
X137276240Y-130182753D01*
X137114957Y-130157208D01*
X137066287Y-130149500D01*
X136853713Y-130149500D01*
X136805042Y-130157208D01*
X136643760Y-130182753D01*
X136441585Y-130248444D01*
X136252179Y-130344951D01*
X136080213Y-130469890D01*
X135929890Y-130620213D01*
X135804949Y-130792182D01*
X135800484Y-130800946D01*
X135752509Y-130851742D01*
X135684688Y-130868536D01*
X135618553Y-130845998D01*
X135579516Y-130800946D01*
X135575050Y-130792182D01*
X135450109Y-130620213D01*
X135299786Y-130469890D01*
X135127820Y-130344951D01*
X134938414Y-130248444D01*
X134938413Y-130248443D01*
X134938412Y-130248443D01*
X134736243Y-130182754D01*
X134736241Y-130182753D01*
X134736240Y-130182753D01*
X134574957Y-130157208D01*
X134526287Y-130149500D01*
X134313713Y-130149500D01*
X134265042Y-130157208D01*
X134103760Y-130182753D01*
X133901585Y-130248444D01*
X133712179Y-130344951D01*
X133540213Y-130469890D01*
X133389890Y-130620213D01*
X133264949Y-130792182D01*
X133260484Y-130800946D01*
X133212509Y-130851742D01*
X133144688Y-130868536D01*
X133078553Y-130845998D01*
X133039516Y-130800946D01*
X133035050Y-130792182D01*
X132910109Y-130620213D01*
X132759786Y-130469890D01*
X132587820Y-130344951D01*
X132398414Y-130248444D01*
X132398413Y-130248443D01*
X132398412Y-130248443D01*
X132196243Y-130182754D01*
X132196241Y-130182753D01*
X132196240Y-130182753D01*
X132034957Y-130157208D01*
X131986287Y-130149500D01*
X131773713Y-130149500D01*
X131725042Y-130157208D01*
X131563760Y-130182753D01*
X131361585Y-130248444D01*
X131172179Y-130344951D01*
X131000213Y-130469890D01*
X130849890Y-130620213D01*
X130724949Y-130792182D01*
X130720484Y-130800946D01*
X130672509Y-130851742D01*
X130604688Y-130868536D01*
X130538553Y-130845998D01*
X130499516Y-130800946D01*
X130495050Y-130792182D01*
X130370109Y-130620213D01*
X130219786Y-130469890D01*
X130047820Y-130344951D01*
X129858414Y-130248444D01*
X129858413Y-130248443D01*
X129858412Y-130248443D01*
X129656243Y-130182754D01*
X129656241Y-130182753D01*
X129656240Y-130182753D01*
X129494957Y-130157208D01*
X129446287Y-130149500D01*
X129233713Y-130149500D01*
X129185042Y-130157208D01*
X129023760Y-130182753D01*
X128821585Y-130248444D01*
X128632179Y-130344951D01*
X128460213Y-130469890D01*
X128309890Y-130620213D01*
X128184949Y-130792182D01*
X128180484Y-130800946D01*
X128132509Y-130851742D01*
X128064688Y-130868536D01*
X127998553Y-130845998D01*
X127959516Y-130800946D01*
X127955050Y-130792182D01*
X127830109Y-130620213D01*
X127679786Y-130469890D01*
X127507820Y-130344951D01*
X127318414Y-130248444D01*
X127318413Y-130248443D01*
X127318412Y-130248443D01*
X127116243Y-130182754D01*
X127116241Y-130182753D01*
X127116240Y-130182753D01*
X126954957Y-130157208D01*
X126906287Y-130149500D01*
X126693713Y-130149500D01*
X126645042Y-130157208D01*
X126483760Y-130182753D01*
X126281585Y-130248444D01*
X126092179Y-130344951D01*
X125920213Y-130469890D01*
X125769890Y-130620213D01*
X125644949Y-130792182D01*
X125640484Y-130800946D01*
X125592509Y-130851742D01*
X125524688Y-130868536D01*
X125458553Y-130845998D01*
X125419516Y-130800946D01*
X125415050Y-130792182D01*
X125290109Y-130620213D01*
X125139786Y-130469890D01*
X124967820Y-130344951D01*
X124778414Y-130248444D01*
X124778413Y-130248443D01*
X124778412Y-130248443D01*
X124576243Y-130182754D01*
X124576241Y-130182753D01*
X124576240Y-130182753D01*
X124414957Y-130157208D01*
X124366287Y-130149500D01*
X124153713Y-130149500D01*
X124105042Y-130157208D01*
X123943760Y-130182753D01*
X123741585Y-130248444D01*
X123552179Y-130344951D01*
X123380213Y-130469890D01*
X123229890Y-130620213D01*
X123104949Y-130792182D01*
X123100484Y-130800946D01*
X123052509Y-130851742D01*
X122984688Y-130868536D01*
X122918553Y-130845998D01*
X122879516Y-130800946D01*
X122875050Y-130792182D01*
X122750109Y-130620213D01*
X122599786Y-130469890D01*
X122427820Y-130344951D01*
X122238414Y-130248444D01*
X122238413Y-130248443D01*
X122238412Y-130248443D01*
X122036243Y-130182754D01*
X122036241Y-130182753D01*
X122036240Y-130182753D01*
X121874957Y-130157208D01*
X121826287Y-130149500D01*
X121613713Y-130149500D01*
X121565042Y-130157208D01*
X121403760Y-130182753D01*
X121201585Y-130248444D01*
X121012179Y-130344951D01*
X120840213Y-130469890D01*
X120689890Y-130620213D01*
X120564949Y-130792182D01*
X120560484Y-130800946D01*
X120512509Y-130851742D01*
X120444688Y-130868536D01*
X120378553Y-130845998D01*
X120339516Y-130800946D01*
X120335050Y-130792182D01*
X120210109Y-130620213D01*
X120059786Y-130469890D01*
X119887820Y-130344951D01*
X119698414Y-130248444D01*
X119698413Y-130248443D01*
X119698412Y-130248443D01*
X119496243Y-130182754D01*
X119496241Y-130182753D01*
X119496240Y-130182753D01*
X119334957Y-130157208D01*
X119286287Y-130149500D01*
X119073713Y-130149500D01*
X119025042Y-130157208D01*
X118863760Y-130182753D01*
X118661585Y-130248444D01*
X118472179Y-130344951D01*
X118300213Y-130469890D01*
X118149890Y-130620213D01*
X118024949Y-130792182D01*
X118020484Y-130800946D01*
X117972509Y-130851742D01*
X117904688Y-130868536D01*
X117838553Y-130845998D01*
X117799516Y-130800946D01*
X117795050Y-130792182D01*
X117670109Y-130620213D01*
X117519786Y-130469890D01*
X117347820Y-130344951D01*
X117158414Y-130248444D01*
X117158413Y-130248443D01*
X117158412Y-130248443D01*
X116956243Y-130182754D01*
X116956241Y-130182753D01*
X116956240Y-130182753D01*
X116794957Y-130157208D01*
X116746287Y-130149500D01*
X116533713Y-130149500D01*
X116485042Y-130157208D01*
X116323760Y-130182753D01*
X116121585Y-130248444D01*
X115932179Y-130344951D01*
X115760213Y-130469890D01*
X115609890Y-130620213D01*
X115484949Y-130792182D01*
X115480202Y-130801499D01*
X115432227Y-130852293D01*
X115364405Y-130869087D01*
X115298271Y-130846548D01*
X115259234Y-130801495D01*
X115254626Y-130792452D01*
X115215270Y-130738282D01*
X115215269Y-130738282D01*
X114582962Y-131370590D01*
X114565925Y-131307007D01*
X114500099Y-131192993D01*
X114407007Y-131099901D01*
X114292993Y-131034075D01*
X114229409Y-131017037D01*
X114861716Y-130384728D01*
X114807550Y-130345375D01*
X114618217Y-130248904D01*
X114416129Y-130183242D01*
X114206246Y-130150000D01*
X113993754Y-130150000D01*
X113783872Y-130183242D01*
X113783869Y-130183242D01*
X113581782Y-130248904D01*
X113392439Y-130345380D01*
X113338282Y-130384727D01*
X113338282Y-130384728D01*
X113970591Y-131017037D01*
X113907007Y-131034075D01*
X113792993Y-131099901D01*
X113699901Y-131192993D01*
X113634075Y-131307007D01*
X113617037Y-131370591D01*
X112984728Y-130738282D01*
X112984727Y-130738282D01*
X112945380Y-130792440D01*
X112945376Y-130792446D01*
X112940760Y-130801505D01*
X112892781Y-130852297D01*
X112824959Y-130869087D01*
X112758826Y-130846543D01*
X112719794Y-130801493D01*
X112715051Y-130792184D01*
X112715049Y-130792181D01*
X112715048Y-130792179D01*
X112590109Y-130620213D01*
X112439786Y-130469890D01*
X112267820Y-130344951D01*
X112078414Y-130248444D01*
X112078413Y-130248443D01*
X112078412Y-130248443D01*
X111876243Y-130182754D01*
X111876241Y-130182753D01*
X111876240Y-130182753D01*
X111714957Y-130157208D01*
X111666287Y-130149500D01*
X111453713Y-130149500D01*
X111405042Y-130157208D01*
X111243760Y-130182753D01*
X111041585Y-130248444D01*
X110852179Y-130344951D01*
X110680213Y-130469890D01*
X110529890Y-130620213D01*
X110404951Y-130792179D01*
X110308444Y-130981585D01*
X110242753Y-131183760D01*
X110209500Y-131393713D01*
X100500500Y-131393713D01*
X100500500Y-108533713D01*
X110209500Y-108533713D01*
X110209500Y-108746286D01*
X110242753Y-108956239D01*
X110308444Y-109158414D01*
X110404951Y-109347820D01*
X110529890Y-109519786D01*
X110680213Y-109670109D01*
X110852179Y-109795048D01*
X110852181Y-109795049D01*
X110852184Y-109795051D01*
X111041588Y-109891557D01*
X111243757Y-109957246D01*
X111453713Y-109990500D01*
X111453714Y-109990500D01*
X111666286Y-109990500D01*
X111666287Y-109990500D01*
X111876243Y-109957246D01*
X112078412Y-109891557D01*
X112267816Y-109795051D01*
X112354138Y-109732335D01*
X112439786Y-109670109D01*
X112439788Y-109670106D01*
X112439792Y-109670104D01*
X112590104Y-109519792D01*
X112590106Y-109519788D01*
X112590109Y-109519786D01*
X112675890Y-109401717D01*
X112715051Y-109347816D01*
X112719793Y-109338508D01*
X112767763Y-109287711D01*
X112835583Y-109270911D01*
X112901719Y-109293445D01*
X112940763Y-109338500D01*
X112945373Y-109347547D01*
X112984728Y-109401716D01*
X113617037Y-108769408D01*
X113634075Y-108832993D01*
X113699901Y-108947007D01*
X113792993Y-109040099D01*
X113907007Y-109105925D01*
X113970590Y-109122962D01*
X113338282Y-109755269D01*
X113338282Y-109755270D01*
X113392449Y-109794624D01*
X113581782Y-109891095D01*
X113783870Y-109956757D01*
X113993754Y-109990000D01*
X114206246Y-109990000D01*
X114416127Y-109956757D01*
X114416130Y-109956757D01*
X114618217Y-109891095D01*
X114807554Y-109794622D01*
X114861716Y-109755270D01*
X114861717Y-109755270D01*
X114229408Y-109122962D01*
X114292993Y-109105925D01*
X114407007Y-109040099D01*
X114500099Y-108947007D01*
X114565925Y-108832993D01*
X114582962Y-108769408D01*
X115215270Y-109401717D01*
X115215270Y-109401716D01*
X115254622Y-109347555D01*
X115259232Y-109338507D01*
X115307205Y-109287709D01*
X115375025Y-109270912D01*
X115441161Y-109293447D01*
X115480204Y-109338504D01*
X115484949Y-109347817D01*
X115609890Y-109519786D01*
X115760213Y-109670109D01*
X115932179Y-109795048D01*
X115932181Y-109795049D01*
X115932184Y-109795051D01*
X116121588Y-109891557D01*
X116323757Y-109957246D01*
X116533713Y-109990500D01*
X116533714Y-109990500D01*
X116746286Y-109990500D01*
X116746287Y-109990500D01*
X116956243Y-109957246D01*
X117158412Y-109891557D01*
X117347816Y-109795051D01*
X117434138Y-109732335D01*
X117519786Y-109670109D01*
X117519788Y-109670106D01*
X117519792Y-109670104D01*
X117670104Y-109519792D01*
X117670106Y-109519788D01*
X117670109Y-109519786D01*
X117795048Y-109347820D01*
X117795047Y-109347820D01*
X117795051Y-109347816D01*
X117799514Y-109339054D01*
X117847488Y-109288259D01*
X117915308Y-109271463D01*
X117981444Y-109293999D01*
X118020486Y-109339056D01*
X118024951Y-109347820D01*
X118149890Y-109519786D01*
X118300213Y-109670109D01*
X118472179Y-109795048D01*
X118472181Y-109795049D01*
X118472184Y-109795051D01*
X118661588Y-109891557D01*
X118863757Y-109957246D01*
X119073713Y-109990500D01*
X119073714Y-109990500D01*
X119286286Y-109990500D01*
X119286287Y-109990500D01*
X119496243Y-109957246D01*
X119698412Y-109891557D01*
X119887816Y-109795051D01*
X119974138Y-109732335D01*
X120059786Y-109670109D01*
X120059788Y-109670106D01*
X120059792Y-109670104D01*
X120210104Y-109519792D01*
X120210106Y-109519788D01*
X120210109Y-109519786D01*
X120335048Y-109347820D01*
X120335047Y-109347820D01*
X120335051Y-109347816D01*
X120339514Y-109339054D01*
X120387488Y-109288259D01*
X120455308Y-109271463D01*
X120521444Y-109293999D01*
X120560486Y-109339056D01*
X120564951Y-109347820D01*
X120689890Y-109519786D01*
X120840213Y-109670109D01*
X121012179Y-109795048D01*
X121012181Y-109795049D01*
X121012184Y-109795051D01*
X121201588Y-109891557D01*
X121403757Y-109957246D01*
X121613713Y-109990500D01*
X121613714Y-109990500D01*
X121826286Y-109990500D01*
X121826287Y-109990500D01*
X122036243Y-109957246D01*
X122238412Y-109891557D01*
X122427816Y-109795051D01*
X122514138Y-109732335D01*
X122599786Y-109670109D01*
X122599788Y-109670106D01*
X122599792Y-109670104D01*
X122750104Y-109519792D01*
X122750106Y-109519788D01*
X122750109Y-109519786D01*
X122875048Y-109347820D01*
X122875047Y-109347820D01*
X122875051Y-109347816D01*
X122879514Y-109339054D01*
X122927488Y-109288259D01*
X122995308Y-109271463D01*
X123061444Y-109293999D01*
X123100486Y-109339056D01*
X123104951Y-109347820D01*
X123229890Y-109519786D01*
X123380213Y-109670109D01*
X123552179Y-109795048D01*
X123552181Y-109795049D01*
X123552184Y-109795051D01*
X123741588Y-109891557D01*
X123943757Y-109957246D01*
X124153713Y-109990500D01*
X124153714Y-109990500D01*
X124366286Y-109990500D01*
X124366287Y-109990500D01*
X124576243Y-109957246D01*
X124778412Y-109891557D01*
X124967816Y-109795051D01*
X125054138Y-109732335D01*
X125139786Y-109670109D01*
X125139788Y-109670106D01*
X125139792Y-109670104D01*
X125290104Y-109519792D01*
X125290106Y-109519788D01*
X125290109Y-109519786D01*
X125415048Y-109347820D01*
X125415047Y-109347820D01*
X125415051Y-109347816D01*
X125419514Y-109339054D01*
X125467488Y-109288259D01*
X125535308Y-109271463D01*
X125601444Y-109293999D01*
X125640486Y-109339056D01*
X125644951Y-109347820D01*
X125769890Y-109519786D01*
X125920213Y-109670109D01*
X126092179Y-109795048D01*
X126092181Y-109795049D01*
X126092184Y-109795051D01*
X126281588Y-109891557D01*
X126483757Y-109957246D01*
X126693713Y-109990500D01*
X126693714Y-109990500D01*
X126906286Y-109990500D01*
X126906287Y-109990500D01*
X127116243Y-109957246D01*
X127318412Y-109891557D01*
X127507816Y-109795051D01*
X127594138Y-109732335D01*
X127679786Y-109670109D01*
X127679788Y-109670106D01*
X127679792Y-109670104D01*
X127830104Y-109519792D01*
X127830106Y-109519788D01*
X127830109Y-109519786D01*
X127955048Y-109347820D01*
X127955047Y-109347820D01*
X127955051Y-109347816D01*
X127959514Y-109339054D01*
X128007488Y-109288259D01*
X128075308Y-109271463D01*
X128141444Y-109293999D01*
X128180486Y-109339056D01*
X128184951Y-109347820D01*
X128309890Y-109519786D01*
X128460213Y-109670109D01*
X128632179Y-109795048D01*
X128632181Y-109795049D01*
X128632184Y-109795051D01*
X128821588Y-109891557D01*
X129023757Y-109957246D01*
X129233713Y-109990500D01*
X129233714Y-109990500D01*
X129446286Y-109990500D01*
X129446287Y-109990500D01*
X129656243Y-109957246D01*
X129858412Y-109891557D01*
X130047816Y-109795051D01*
X130134138Y-109732335D01*
X130219786Y-109670109D01*
X130219788Y-109670106D01*
X130219792Y-109670104D01*
X130370104Y-109519792D01*
X130370106Y-109519788D01*
X130370109Y-109519786D01*
X130495048Y-109347820D01*
X130495047Y-109347820D01*
X130495051Y-109347816D01*
X130499514Y-109339054D01*
X130547488Y-109288259D01*
X130615308Y-109271463D01*
X130681444Y-109293999D01*
X130720486Y-109339056D01*
X130724951Y-109347820D01*
X130849890Y-109519786D01*
X131000213Y-109670109D01*
X131172179Y-109795048D01*
X131172181Y-109795049D01*
X131172184Y-109795051D01*
X131361588Y-109891557D01*
X131563757Y-109957246D01*
X131773713Y-109990500D01*
X131773714Y-109990500D01*
X131986286Y-109990500D01*
X131986287Y-109990500D01*
X132196243Y-109957246D01*
X132398412Y-109891557D01*
X132587816Y-109795051D01*
X132674138Y-109732335D01*
X132759786Y-109670109D01*
X132759788Y-109670106D01*
X132759792Y-109670104D01*
X132910104Y-109519792D01*
X132910106Y-109519788D01*
X132910109Y-109519786D01*
X133035048Y-109347820D01*
X133035047Y-109347820D01*
X133035051Y-109347816D01*
X133039514Y-109339054D01*
X133087488Y-109288259D01*
X133155308Y-109271463D01*
X133221444Y-109293999D01*
X133260486Y-109339056D01*
X133264951Y-109347820D01*
X133389890Y-109519786D01*
X133540213Y-109670109D01*
X133712179Y-109795048D01*
X133712181Y-109795049D01*
X133712184Y-109795051D01*
X133901588Y-109891557D01*
X134103757Y-109957246D01*
X134313713Y-109990500D01*
X134313714Y-109990500D01*
X134526286Y-109990500D01*
X134526287Y-109990500D01*
X134736243Y-109957246D01*
X134938412Y-109891557D01*
X135127816Y-109795051D01*
X135214138Y-109732335D01*
X135299786Y-109670109D01*
X135299788Y-109670106D01*
X135299792Y-109670104D01*
X135450104Y-109519792D01*
X135450106Y-109519788D01*
X135450109Y-109519786D01*
X135575048Y-109347820D01*
X135575047Y-109347820D01*
X135575051Y-109347816D01*
X135579514Y-109339054D01*
X135627488Y-109288259D01*
X135695308Y-109271463D01*
X135761444Y-109293999D01*
X135800486Y-109339056D01*
X135804951Y-109347820D01*
X135929890Y-109519786D01*
X136080213Y-109670109D01*
X136252179Y-109795048D01*
X136252181Y-109795049D01*
X136252184Y-109795051D01*
X136441588Y-109891557D01*
X136643757Y-109957246D01*
X136853713Y-109990500D01*
X136853714Y-109990500D01*
X137066286Y-109990500D01*
X137066287Y-109990500D01*
X137276243Y-109957246D01*
X137478412Y-109891557D01*
X137667816Y-109795051D01*
X137754138Y-109732335D01*
X137839786Y-109670109D01*
X137839788Y-109670106D01*
X137839792Y-109670104D01*
X137990104Y-109519792D01*
X137990106Y-109519788D01*
X137990109Y-109519786D01*
X138115048Y-109347820D01*
X138115047Y-109347820D01*
X138115051Y-109347816D01*
X138119514Y-109339054D01*
X138167488Y-109288259D01*
X138235308Y-109271463D01*
X138301444Y-109293999D01*
X138340486Y-109339056D01*
X138344951Y-109347820D01*
X138469890Y-109519786D01*
X138620213Y-109670109D01*
X138792179Y-109795048D01*
X138792181Y-109795049D01*
X138792184Y-109795051D01*
X138981588Y-109891557D01*
X139183757Y-109957246D01*
X139393713Y-109990500D01*
X139393714Y-109990500D01*
X139606286Y-109990500D01*
X139606287Y-109990500D01*
X139816243Y-109957246D01*
X140018412Y-109891557D01*
X140207816Y-109795051D01*
X140294138Y-109732335D01*
X140379786Y-109670109D01*
X140379788Y-109670106D01*
X140379792Y-109670104D01*
X140530104Y-109519792D01*
X140530106Y-109519788D01*
X140530109Y-109519786D01*
X140655048Y-109347820D01*
X140655047Y-109347820D01*
X140655051Y-109347816D01*
X140659514Y-109339054D01*
X140707488Y-109288259D01*
X140775308Y-109271463D01*
X140841444Y-109293999D01*
X140880486Y-109339056D01*
X140884951Y-109347820D01*
X141009890Y-109519786D01*
X141160213Y-109670109D01*
X141332179Y-109795048D01*
X141332181Y-109795049D01*
X141332184Y-109795051D01*
X141521588Y-109891557D01*
X141723757Y-109957246D01*
X141933713Y-109990500D01*
X141933714Y-109990500D01*
X142146286Y-109990500D01*
X142146287Y-109990500D01*
X142356243Y-109957246D01*
X142558412Y-109891557D01*
X142747816Y-109795051D01*
X142834138Y-109732335D01*
X142919786Y-109670109D01*
X142919788Y-109670106D01*
X142919792Y-109670104D01*
X143070104Y-109519792D01*
X143070106Y-109519788D01*
X143070109Y-109519786D01*
X143195048Y-109347820D01*
X143195047Y-109347820D01*
X143195051Y-109347816D01*
X143199514Y-109339054D01*
X143247488Y-109288259D01*
X143315308Y-109271463D01*
X143381444Y-109293999D01*
X143420486Y-109339056D01*
X143424951Y-109347820D01*
X143549890Y-109519786D01*
X143700213Y-109670109D01*
X143872179Y-109795048D01*
X143872181Y-109795049D01*
X143872184Y-109795051D01*
X144061588Y-109891557D01*
X144263757Y-109957246D01*
X144473713Y-109990500D01*
X144473714Y-109990500D01*
X144686286Y-109990500D01*
X144686287Y-109990500D01*
X144896243Y-109957246D01*
X145098412Y-109891557D01*
X145287816Y-109795051D01*
X145459792Y-109670104D01*
X145573329Y-109556566D01*
X145634648Y-109523084D01*
X145704340Y-109528068D01*
X145760274Y-109569939D01*
X145777189Y-109600917D01*
X145826202Y-109732328D01*
X145826206Y-109732335D01*
X145912452Y-109847544D01*
X145912455Y-109847547D01*
X146027664Y-109933793D01*
X146027671Y-109933797D01*
X146162517Y-109984091D01*
X146162516Y-109984091D01*
X146169444Y-109984835D01*
X146222127Y-109990500D01*
X148017872Y-109990499D01*
X148077483Y-109984091D01*
X148212331Y-109933796D01*
X148327546Y-109847546D01*
X148413796Y-109732331D01*
X148464091Y-109597483D01*
X148470500Y-109537873D01*
X148470499Y-107742128D01*
X148464091Y-107682517D01*
X148462810Y-107679083D01*
X148413797Y-107547671D01*
X148413793Y-107547664D01*
X148327547Y-107432455D01*
X148327544Y-107432452D01*
X148212335Y-107346206D01*
X148212328Y-107346202D01*
X148077482Y-107295908D01*
X148077483Y-107295908D01*
X148017883Y-107289501D01*
X148017881Y-107289500D01*
X148017873Y-107289500D01*
X148017864Y-107289500D01*
X146222129Y-107289500D01*
X146222123Y-107289501D01*
X146162516Y-107295908D01*
X146027671Y-107346202D01*
X146027664Y-107346206D01*
X145912455Y-107432452D01*
X145912452Y-107432455D01*
X145826206Y-107547664D01*
X145826203Y-107547669D01*
X145777189Y-107679083D01*
X145735317Y-107735016D01*
X145669853Y-107759433D01*
X145601580Y-107744581D01*
X145573326Y-107723430D01*
X145459786Y-107609890D01*
X145287820Y-107484951D01*
X145098414Y-107388444D01*
X145098413Y-107388443D01*
X145098412Y-107388443D01*
X144896243Y-107322754D01*
X144896241Y-107322753D01*
X144896240Y-107322753D01*
X144734957Y-107297208D01*
X144686287Y-107289500D01*
X144473713Y-107289500D01*
X144425042Y-107297208D01*
X144263760Y-107322753D01*
X144061585Y-107388444D01*
X143872179Y-107484951D01*
X143700213Y-107609890D01*
X143549890Y-107760213D01*
X143424949Y-107932182D01*
X143420484Y-107940946D01*
X143372509Y-107991742D01*
X143304688Y-108008536D01*
X143238553Y-107985998D01*
X143199516Y-107940946D01*
X143195050Y-107932182D01*
X143070109Y-107760213D01*
X142919786Y-107609890D01*
X142747820Y-107484951D01*
X142558414Y-107388444D01*
X142558413Y-107388443D01*
X142558412Y-107388443D01*
X142356243Y-107322754D01*
X142356241Y-107322753D01*
X142356240Y-107322753D01*
X142194957Y-107297208D01*
X142146287Y-107289500D01*
X141933713Y-107289500D01*
X141885042Y-107297208D01*
X141723760Y-107322753D01*
X141521585Y-107388444D01*
X141332179Y-107484951D01*
X141160213Y-107609890D01*
X141009890Y-107760213D01*
X140884949Y-107932182D01*
X140880484Y-107940946D01*
X140832509Y-107991742D01*
X140764688Y-108008536D01*
X140698553Y-107985998D01*
X140659516Y-107940946D01*
X140655050Y-107932182D01*
X140530109Y-107760213D01*
X140379786Y-107609890D01*
X140207820Y-107484951D01*
X140018414Y-107388444D01*
X140018413Y-107388443D01*
X140018412Y-107388443D01*
X139816243Y-107322754D01*
X139816241Y-107322753D01*
X139816240Y-107322753D01*
X139654957Y-107297208D01*
X139606287Y-107289500D01*
X139393713Y-107289500D01*
X139345042Y-107297208D01*
X139183760Y-107322753D01*
X138981585Y-107388444D01*
X138792179Y-107484951D01*
X138620213Y-107609890D01*
X138469890Y-107760213D01*
X138344949Y-107932182D01*
X138340484Y-107940946D01*
X138292509Y-107991742D01*
X138224688Y-108008536D01*
X138158553Y-107985998D01*
X138119516Y-107940946D01*
X138115050Y-107932182D01*
X137990109Y-107760213D01*
X137839786Y-107609890D01*
X137667820Y-107484951D01*
X137478414Y-107388444D01*
X137478413Y-107388443D01*
X137478412Y-107388443D01*
X137276243Y-107322754D01*
X137276241Y-107322753D01*
X137276240Y-107322753D01*
X137114957Y-107297208D01*
X137066287Y-107289500D01*
X136853713Y-107289500D01*
X136805042Y-107297208D01*
X136643760Y-107322753D01*
X136441585Y-107388444D01*
X136252179Y-107484951D01*
X136080213Y-107609890D01*
X135929890Y-107760213D01*
X135804949Y-107932182D01*
X135800484Y-107940946D01*
X135752509Y-107991742D01*
X135684688Y-108008536D01*
X135618553Y-107985998D01*
X135579516Y-107940946D01*
X135575050Y-107932182D01*
X135450109Y-107760213D01*
X135299786Y-107609890D01*
X135127820Y-107484951D01*
X134938414Y-107388444D01*
X134938413Y-107388443D01*
X134938412Y-107388443D01*
X134736243Y-107322754D01*
X134736241Y-107322753D01*
X134736240Y-107322753D01*
X134574957Y-107297208D01*
X134526287Y-107289500D01*
X134313713Y-107289500D01*
X134265042Y-107297208D01*
X134103760Y-107322753D01*
X133901585Y-107388444D01*
X133712179Y-107484951D01*
X133540213Y-107609890D01*
X133389890Y-107760213D01*
X133264949Y-107932182D01*
X133260484Y-107940946D01*
X133212509Y-107991742D01*
X133144688Y-108008536D01*
X133078553Y-107985998D01*
X133039516Y-107940946D01*
X133035050Y-107932182D01*
X132910109Y-107760213D01*
X132759786Y-107609890D01*
X132587820Y-107484951D01*
X132398414Y-107388444D01*
X132398413Y-107388443D01*
X132398412Y-107388443D01*
X132196243Y-107322754D01*
X132196241Y-107322753D01*
X132196240Y-107322753D01*
X132034957Y-107297208D01*
X131986287Y-107289500D01*
X131773713Y-107289500D01*
X131725042Y-107297208D01*
X131563760Y-107322753D01*
X131361585Y-107388444D01*
X131172179Y-107484951D01*
X131000213Y-107609890D01*
X130849890Y-107760213D01*
X130724949Y-107932182D01*
X130720484Y-107940946D01*
X130672509Y-107991742D01*
X130604688Y-108008536D01*
X130538553Y-107985998D01*
X130499516Y-107940946D01*
X130495050Y-107932182D01*
X130370109Y-107760213D01*
X130219786Y-107609890D01*
X130047820Y-107484951D01*
X129858414Y-107388444D01*
X129858413Y-107388443D01*
X129858412Y-107388443D01*
X129656243Y-107322754D01*
X129656241Y-107322753D01*
X129656240Y-107322753D01*
X129494957Y-107297208D01*
X129446287Y-107289500D01*
X129233713Y-107289500D01*
X129185042Y-107297208D01*
X129023760Y-107322753D01*
X128821585Y-107388444D01*
X128632179Y-107484951D01*
X128460213Y-107609890D01*
X128309890Y-107760213D01*
X128184949Y-107932182D01*
X128180484Y-107940946D01*
X128132509Y-107991742D01*
X128064688Y-108008536D01*
X127998553Y-107985998D01*
X127959516Y-107940946D01*
X127955050Y-107932182D01*
X127830109Y-107760213D01*
X127679786Y-107609890D01*
X127507820Y-107484951D01*
X127318414Y-107388444D01*
X127318413Y-107388443D01*
X127318412Y-107388443D01*
X127116243Y-107322754D01*
X127116241Y-107322753D01*
X127116240Y-107322753D01*
X126954957Y-107297208D01*
X126906287Y-107289500D01*
X126693713Y-107289500D01*
X126645042Y-107297208D01*
X126483760Y-107322753D01*
X126281585Y-107388444D01*
X126092179Y-107484951D01*
X125920213Y-107609890D01*
X125769890Y-107760213D01*
X125644949Y-107932182D01*
X125640484Y-107940946D01*
X125592509Y-107991742D01*
X125524688Y-108008536D01*
X125458553Y-107985998D01*
X125419516Y-107940946D01*
X125415050Y-107932182D01*
X125290109Y-107760213D01*
X125139786Y-107609890D01*
X124967820Y-107484951D01*
X124778414Y-107388444D01*
X124778413Y-107388443D01*
X124778412Y-107388443D01*
X124576243Y-107322754D01*
X124576241Y-107322753D01*
X124576240Y-107322753D01*
X124414957Y-107297208D01*
X124366287Y-107289500D01*
X124153713Y-107289500D01*
X124105042Y-107297208D01*
X123943760Y-107322753D01*
X123741585Y-107388444D01*
X123552179Y-107484951D01*
X123380213Y-107609890D01*
X123229890Y-107760213D01*
X123104949Y-107932182D01*
X123100484Y-107940946D01*
X123052509Y-107991742D01*
X122984688Y-108008536D01*
X122918553Y-107985998D01*
X122879516Y-107940946D01*
X122875050Y-107932182D01*
X122750109Y-107760213D01*
X122599786Y-107609890D01*
X122427820Y-107484951D01*
X122238414Y-107388444D01*
X122238413Y-107388443D01*
X122238412Y-107388443D01*
X122036243Y-107322754D01*
X122036241Y-107322753D01*
X122036240Y-107322753D01*
X121874957Y-107297208D01*
X121826287Y-107289500D01*
X121613713Y-107289500D01*
X121565042Y-107297208D01*
X121403760Y-107322753D01*
X121201585Y-107388444D01*
X121012179Y-107484951D01*
X120840213Y-107609890D01*
X120689890Y-107760213D01*
X120564949Y-107932182D01*
X120560484Y-107940946D01*
X120512509Y-107991742D01*
X120444688Y-108008536D01*
X120378553Y-107985998D01*
X120339516Y-107940946D01*
X120335050Y-107932182D01*
X120210109Y-107760213D01*
X120059786Y-107609890D01*
X119887820Y-107484951D01*
X119698414Y-107388444D01*
X119698413Y-107388443D01*
X119698412Y-107388443D01*
X119496243Y-107322754D01*
X119496241Y-107322753D01*
X119496240Y-107322753D01*
X119334957Y-107297208D01*
X119286287Y-107289500D01*
X119073713Y-107289500D01*
X119025042Y-107297208D01*
X118863760Y-107322753D01*
X118661585Y-107388444D01*
X118472179Y-107484951D01*
X118300213Y-107609890D01*
X118149890Y-107760213D01*
X118024949Y-107932182D01*
X118020484Y-107940946D01*
X117972509Y-107991742D01*
X117904688Y-108008536D01*
X117838553Y-107985998D01*
X117799516Y-107940946D01*
X117795050Y-107932182D01*
X117670109Y-107760213D01*
X117519786Y-107609890D01*
X117347820Y-107484951D01*
X117158414Y-107388444D01*
X117158413Y-107388443D01*
X117158412Y-107388443D01*
X116956243Y-107322754D01*
X116956241Y-107322753D01*
X116956240Y-107322753D01*
X116794957Y-107297208D01*
X116746287Y-107289500D01*
X116533713Y-107289500D01*
X116485042Y-107297208D01*
X116323760Y-107322753D01*
X116121585Y-107388444D01*
X115932179Y-107484951D01*
X115760213Y-107609890D01*
X115609890Y-107760213D01*
X115484949Y-107932182D01*
X115480202Y-107941499D01*
X115432227Y-107992293D01*
X115364405Y-108009087D01*
X115298271Y-107986548D01*
X115259234Y-107941495D01*
X115254626Y-107932452D01*
X115215270Y-107878282D01*
X115215269Y-107878282D01*
X114582962Y-108510590D01*
X114565925Y-108447007D01*
X114500099Y-108332993D01*
X114407007Y-108239901D01*
X114292993Y-108174075D01*
X114229409Y-108157037D01*
X114861716Y-107524728D01*
X114807550Y-107485375D01*
X114618217Y-107388904D01*
X114416129Y-107323242D01*
X114206246Y-107290000D01*
X113993754Y-107290000D01*
X113783872Y-107323242D01*
X113783869Y-107323242D01*
X113581782Y-107388904D01*
X113392439Y-107485380D01*
X113338282Y-107524727D01*
X113338282Y-107524728D01*
X113970591Y-108157037D01*
X113907007Y-108174075D01*
X113792993Y-108239901D01*
X113699901Y-108332993D01*
X113634075Y-108447007D01*
X113617037Y-108510591D01*
X112984728Y-107878282D01*
X112984727Y-107878282D01*
X112945380Y-107932440D01*
X112945376Y-107932446D01*
X112940760Y-107941505D01*
X112892781Y-107992297D01*
X112824959Y-108009087D01*
X112758826Y-107986543D01*
X112719794Y-107941493D01*
X112715051Y-107932184D01*
X112715049Y-107932181D01*
X112715048Y-107932179D01*
X112590109Y-107760213D01*
X112439786Y-107609890D01*
X112267820Y-107484951D01*
X112078414Y-107388444D01*
X112078413Y-107388443D01*
X112078412Y-107388443D01*
X111876243Y-107322754D01*
X111876241Y-107322753D01*
X111876240Y-107322753D01*
X111714957Y-107297208D01*
X111666287Y-107289500D01*
X111453713Y-107289500D01*
X111405042Y-107297208D01*
X111243760Y-107322753D01*
X111041585Y-107388444D01*
X110852179Y-107484951D01*
X110680213Y-107609890D01*
X110529890Y-107760213D01*
X110404951Y-107932179D01*
X110308444Y-108121585D01*
X110242753Y-108323760D01*
X110209500Y-108533713D01*
X100500500Y-108533713D01*
X100500500Y-103878711D01*
X102149500Y-103878711D01*
X102149500Y-104121288D01*
X102181161Y-104361785D01*
X102243947Y-104596104D01*
X102336773Y-104820205D01*
X102336776Y-104820212D01*
X102458064Y-105030289D01*
X102458066Y-105030292D01*
X102458067Y-105030293D01*
X102605733Y-105222736D01*
X102605739Y-105222743D01*
X102777256Y-105394260D01*
X102777262Y-105394265D01*
X102969711Y-105541936D01*
X103179788Y-105663224D01*
X103403900Y-105756054D01*
X103638211Y-105818838D01*
X103818586Y-105842584D01*
X103878711Y-105850500D01*
X103878712Y-105850500D01*
X104121289Y-105850500D01*
X104169388Y-105844167D01*
X104361789Y-105818838D01*
X104596100Y-105756054D01*
X104820212Y-105663224D01*
X105030289Y-105541936D01*
X105222738Y-105394265D01*
X105394265Y-105222738D01*
X105541936Y-105030289D01*
X105663224Y-104820212D01*
X105756054Y-104596100D01*
X105818838Y-104361789D01*
X105850500Y-104121288D01*
X105850500Y-103878712D01*
X105850500Y-103878711D01*
X154149500Y-103878711D01*
X154149500Y-104121288D01*
X154181161Y-104361785D01*
X154243947Y-104596104D01*
X154336773Y-104820205D01*
X154336776Y-104820212D01*
X154458064Y-105030289D01*
X154458066Y-105030292D01*
X154458067Y-105030293D01*
X154605733Y-105222736D01*
X154605739Y-105222743D01*
X154777256Y-105394260D01*
X154777262Y-105394265D01*
X154969711Y-105541936D01*
X155179788Y-105663224D01*
X155403900Y-105756054D01*
X155638211Y-105818838D01*
X155818586Y-105842584D01*
X155878711Y-105850500D01*
X155878712Y-105850500D01*
X156121289Y-105850500D01*
X156169388Y-105844167D01*
X156361789Y-105818838D01*
X156596100Y-105756054D01*
X156820212Y-105663224D01*
X157030289Y-105541936D01*
X157222738Y-105394265D01*
X157394265Y-105222738D01*
X157541936Y-105030289D01*
X157663224Y-104820212D01*
X157756054Y-104596100D01*
X157818838Y-104361789D01*
X157850500Y-104121288D01*
X157850500Y-103878712D01*
X157818838Y-103638211D01*
X157756054Y-103403900D01*
X157663224Y-103179788D01*
X157541936Y-102969711D01*
X157394265Y-102777262D01*
X157394260Y-102777256D01*
X157222743Y-102605739D01*
X157222736Y-102605733D01*
X157030293Y-102458067D01*
X157030292Y-102458066D01*
X157030289Y-102458064D01*
X156820212Y-102336776D01*
X156820205Y-102336773D01*
X156596104Y-102243947D01*
X156478944Y-102212554D01*
X156361789Y-102181162D01*
X156361788Y-102181161D01*
X156361785Y-102181161D01*
X156121289Y-102149500D01*
X156121288Y-102149500D01*
X155878712Y-102149500D01*
X155878711Y-102149500D01*
X155638214Y-102181161D01*
X155403895Y-102243947D01*
X155179794Y-102336773D01*
X155179785Y-102336777D01*
X154969706Y-102458067D01*
X154777263Y-102605733D01*
X154777256Y-102605739D01*
X154605739Y-102777256D01*
X154605733Y-102777263D01*
X154458067Y-102969706D01*
X154336777Y-103179785D01*
X154336773Y-103179794D01*
X154243947Y-103403895D01*
X154181161Y-103638214D01*
X154149500Y-103878711D01*
X105850500Y-103878711D01*
X105818838Y-103638211D01*
X105756054Y-103403900D01*
X105663224Y-103179788D01*
X105541936Y-102969711D01*
X105488521Y-102900099D01*
X105394269Y-102777266D01*
X105394260Y-102777256D01*
X105222743Y-102605739D01*
X105222736Y-102605733D01*
X105030293Y-102458067D01*
X105030292Y-102458066D01*
X105030289Y-102458064D01*
X104820212Y-102336776D01*
X104820205Y-102336773D01*
X104596104Y-102243947D01*
X104478944Y-102212554D01*
X104361789Y-102181162D01*
X104361788Y-102181161D01*
X104361785Y-102181161D01*
X104121289Y-102149500D01*
X104121288Y-102149500D01*
X103878712Y-102149500D01*
X103878711Y-102149500D01*
X103638214Y-102181161D01*
X103403895Y-102243947D01*
X103179794Y-102336773D01*
X103179785Y-102336777D01*
X102969706Y-102458067D01*
X102777263Y-102605733D01*
X102777256Y-102605739D01*
X102605739Y-102777256D01*
X102605733Y-102777263D01*
X102458067Y-102969706D01*
X102336777Y-103179785D01*
X102336773Y-103179794D01*
X102243947Y-103403895D01*
X102181161Y-103638214D01*
X102149500Y-103878711D01*
X100500500Y-103878711D01*
X100500500Y-101602155D01*
X124030000Y-101602155D01*
X124030000Y-102250000D01*
X124946988Y-102250000D01*
X124914075Y-102307007D01*
X124880000Y-102434174D01*
X124880000Y-102565826D01*
X124914075Y-102692993D01*
X124946988Y-102750000D01*
X124030000Y-102750000D01*
X124030000Y-103397844D01*
X124036401Y-103457372D01*
X124036403Y-103457379D01*
X124086645Y-103592086D01*
X124086649Y-103592093D01*
X124172809Y-103707187D01*
X124172812Y-103707190D01*
X124287906Y-103793350D01*
X124287913Y-103793354D01*
X124422620Y-103843596D01*
X124422627Y-103843598D01*
X124482155Y-103849999D01*
X124482172Y-103850000D01*
X125130000Y-103850000D01*
X125130000Y-102933012D01*
X125187007Y-102965925D01*
X125314174Y-103000000D01*
X125445826Y-103000000D01*
X125572993Y-102965925D01*
X125630000Y-102933012D01*
X125630000Y-103850000D01*
X126277828Y-103850000D01*
X126277844Y-103849999D01*
X126337372Y-103843598D01*
X126337379Y-103843596D01*
X126472086Y-103793354D01*
X126472093Y-103793350D01*
X126587187Y-103707190D01*
X126587190Y-103707187D01*
X126673350Y-103592093D01*
X126673354Y-103592086D01*
X126722422Y-103460529D01*
X126764293Y-103404595D01*
X126829757Y-103380178D01*
X126898030Y-103395030D01*
X126926285Y-103416181D01*
X127040213Y-103530109D01*
X127212179Y-103655048D01*
X127212181Y-103655049D01*
X127212184Y-103655051D01*
X127401588Y-103751557D01*
X127603757Y-103817246D01*
X127813713Y-103850500D01*
X127813714Y-103850500D01*
X128026286Y-103850500D01*
X128026287Y-103850500D01*
X128236243Y-103817246D01*
X128438412Y-103751557D01*
X128627816Y-103655051D01*
X128714471Y-103592093D01*
X128799786Y-103530109D01*
X128799788Y-103530106D01*
X128799792Y-103530104D01*
X128950104Y-103379792D01*
X128950106Y-103379788D01*
X128950109Y-103379786D01*
X129075048Y-103207820D01*
X129075047Y-103207820D01*
X129075051Y-103207816D01*
X129079514Y-103199054D01*
X129127488Y-103148259D01*
X129195308Y-103131463D01*
X129261444Y-103153999D01*
X129300486Y-103199056D01*
X129304951Y-103207820D01*
X129429890Y-103379786D01*
X129580213Y-103530109D01*
X129752179Y-103655048D01*
X129752181Y-103655049D01*
X129752184Y-103655051D01*
X129941588Y-103751557D01*
X130143757Y-103817246D01*
X130353713Y-103850500D01*
X130353714Y-103850500D01*
X130566286Y-103850500D01*
X130566287Y-103850500D01*
X130776243Y-103817246D01*
X130978412Y-103751557D01*
X131167816Y-103655051D01*
X131254471Y-103592093D01*
X131339786Y-103530109D01*
X131339788Y-103530106D01*
X131339792Y-103530104D01*
X131490104Y-103379792D01*
X131490106Y-103379788D01*
X131490109Y-103379786D01*
X131615048Y-103207820D01*
X131615047Y-103207820D01*
X131615051Y-103207816D01*
X131619514Y-103199054D01*
X131667488Y-103148259D01*
X131735308Y-103131463D01*
X131801444Y-103153999D01*
X131840486Y-103199056D01*
X131844951Y-103207820D01*
X131969890Y-103379786D01*
X132120213Y-103530109D01*
X132292179Y-103655048D01*
X132292181Y-103655049D01*
X132292184Y-103655051D01*
X132481588Y-103751557D01*
X132683757Y-103817246D01*
X132893713Y-103850500D01*
X132893714Y-103850500D01*
X133106286Y-103850500D01*
X133106287Y-103850500D01*
X133316243Y-103817246D01*
X133518412Y-103751557D01*
X133707816Y-103655051D01*
X133794471Y-103592093D01*
X133879786Y-103530109D01*
X133879788Y-103530106D01*
X133879792Y-103530104D01*
X134030104Y-103379792D01*
X134030106Y-103379788D01*
X134030109Y-103379786D01*
X134155048Y-103207820D01*
X134155047Y-103207820D01*
X134155051Y-103207816D01*
X134251557Y-103018412D01*
X134317246Y-102816243D01*
X134350500Y-102606287D01*
X134350500Y-102393713D01*
X134317246Y-102183757D01*
X134251557Y-101981588D01*
X134155051Y-101792184D01*
X134155049Y-101792181D01*
X134155048Y-101792179D01*
X134030109Y-101620213D01*
X133879786Y-101469890D01*
X133707820Y-101344951D01*
X133518414Y-101248444D01*
X133518413Y-101248443D01*
X133518412Y-101248443D01*
X133316243Y-101182754D01*
X133316241Y-101182753D01*
X133316240Y-101182753D01*
X133154957Y-101157208D01*
X133106287Y-101149500D01*
X132893713Y-101149500D01*
X132845042Y-101157208D01*
X132683760Y-101182753D01*
X132481585Y-101248444D01*
X132292179Y-101344951D01*
X132120213Y-101469890D01*
X131969890Y-101620213D01*
X131844949Y-101792182D01*
X131840484Y-101800946D01*
X131792509Y-101851742D01*
X131724688Y-101868536D01*
X131658553Y-101845998D01*
X131619516Y-101800946D01*
X131615050Y-101792182D01*
X131490109Y-101620213D01*
X131339786Y-101469890D01*
X131167820Y-101344951D01*
X130978414Y-101248444D01*
X130978413Y-101248443D01*
X130978412Y-101248443D01*
X130776243Y-101182754D01*
X130776241Y-101182753D01*
X130776240Y-101182753D01*
X130614957Y-101157208D01*
X130566287Y-101149500D01*
X130353713Y-101149500D01*
X130305042Y-101157208D01*
X130143760Y-101182753D01*
X129941585Y-101248444D01*
X129752179Y-101344951D01*
X129580213Y-101469890D01*
X129429890Y-101620213D01*
X129304949Y-101792182D01*
X129300484Y-101800946D01*
X129252509Y-101851742D01*
X129184688Y-101868536D01*
X129118553Y-101845998D01*
X129079516Y-101800946D01*
X129075050Y-101792182D01*
X128950109Y-101620213D01*
X128799786Y-101469890D01*
X128627820Y-101344951D01*
X128438414Y-101248444D01*
X128438413Y-101248443D01*
X128438412Y-101248443D01*
X128236243Y-101182754D01*
X128236241Y-101182753D01*
X128236240Y-101182753D01*
X128074957Y-101157208D01*
X128026287Y-101149500D01*
X127813713Y-101149500D01*
X127765042Y-101157208D01*
X127603760Y-101182753D01*
X127401585Y-101248444D01*
X127212179Y-101344951D01*
X127040215Y-101469889D01*
X126926285Y-101583819D01*
X126864962Y-101617303D01*
X126795270Y-101612319D01*
X126739337Y-101570447D01*
X126722422Y-101539470D01*
X126673354Y-101407913D01*
X126673350Y-101407906D01*
X126587190Y-101292812D01*
X126587187Y-101292809D01*
X126472093Y-101206649D01*
X126472086Y-101206645D01*
X126337379Y-101156403D01*
X126337372Y-101156401D01*
X126277844Y-101150000D01*
X125630000Y-101150000D01*
X125630000Y-102066988D01*
X125572993Y-102034075D01*
X125445826Y-102000000D01*
X125314174Y-102000000D01*
X125187007Y-102034075D01*
X125130000Y-102066988D01*
X125130000Y-101150000D01*
X124482155Y-101150000D01*
X124422627Y-101156401D01*
X124422620Y-101156403D01*
X124287913Y-101206645D01*
X124287906Y-101206649D01*
X124172812Y-101292809D01*
X124172809Y-101292812D01*
X124086649Y-101407906D01*
X124086645Y-101407913D01*
X124036403Y-101542620D01*
X124036401Y-101542627D01*
X124030000Y-101602155D01*
X100500500Y-101602155D01*
X100500500Y-100624500D01*
X100520185Y-100557461D01*
X100572989Y-100511706D01*
X100624500Y-100500500D01*
X159375500Y-100500500D01*
X159442539Y-100520185D01*
G37*
%TD.AperFunction*%
%TD*%
M02*
