%TF.GenerationSoftware,KiCad,Pcbnew,10.0.6*%
%TF.CreationDate,2026-10-06T16:55:33-07:00*%
%TF.ProjectId,BattSense_AFE,42617474-5365-46e7-9365-5f4146452e6b,rev?*%
%TF.SameCoordinates,Original*%
%TF.FileFunction,Copper,L1,Top*%
%TF.FilePolarity,Positive*%
%FSLAX46Y46*%
G04 Gerber Fmt 4.6, Leading zero omitted, Abs format (unit mm)*
G04 Created by KiCad (PCBNEW 10.0.6) date 2026-10-06 16:55:33*
%MOMM*%
%LPD*%
G01*
G04 APERTURE LIST*
%TA.AperFunction,ComponentPad*%
%ADD10C,1.700000*%
%TD*%
%TA.AperFunction,ComponentPad*%
%ADD11R,1.700000X1.700000*%
%TD*%
%TA.AperFunction,ComponentPad*%
%ADD12C,1.600000*%
%TD*%
%TA.AperFunction,Conductor*%
%ADD13C,0.250000*%
%TD*%
%TA.AperFunction,Conductor*%
%ADD14C,0.200000*%
%TD*%
G04 APERTURE END LIST*
D10*
%TO.P,J1,2,Pin_2_2*%
%TO.N,GND*%
X138620000Y-146140000D03*
D11*
%TO.P,J1,1,Pin_1_1*%
%TO.N,/VBAT*%
X141160000Y-146140000D03*
%TD*%
D12*
%TO.P,R2,1*%
%TO.N,Net-(R1-Pad2)*%
X129780000Y-140140000D03*
%TO.P,R2,2*%
%TO.N,Net-(R2-Pad2)*%
X119620000Y-140140000D03*
%TD*%
%TO.P,R1,1*%
%TO.N,/VBAT*%
X144620000Y-140140000D03*
%TO.P,R1,2*%
%TO.N,Net-(R1-Pad2)*%
X134460000Y-140140000D03*
%TD*%
%TO.P,R3,2*%
%TO.N,/ADC_SENSE*%
X104540000Y-140140000D03*
%TO.P,R3,1*%
%TO.N,Net-(R2-Pad2)*%
X114700000Y-140140000D03*
%TD*%
%TO.P,R4,2*%
%TO.N,Net-(R4-Pad2)*%
X104620000Y-146140000D03*
%TO.P,R4,1*%
%TO.N,/ADC_SENSE*%
X114780000Y-146140000D03*
%TD*%
%TO.P,R5,2*%
%TO.N,GND*%
X119620000Y-146140000D03*
%TO.P,R5,1*%
%TO.N,Net-(R4-Pad2)*%
X129780000Y-146140000D03*
%TD*%
D11*
%TO.P,J4,1,Pin_1_1*%
%TO.N,GND*%
X125380000Y-102500000D03*
D10*
%TO.P,J4,2,Pin_2_2*%
%TO.N,/+3.3V*%
X127920000Y-102500000D03*
%TO.P,J4,3,Pin_3_3*%
%TO.N,/OLED_SCL*%
X130460000Y-102500000D03*
%TO.P,J4,4,Pin_4_4*%
%TO.N,/OLED_SDA*%
X133000000Y-102500000D03*
%TD*%
D11*
%TO.P,J3,1,Pin_1_1*%
%TO.N,unconnected-(J3-Pin_1-Pad1)*%
X147120000Y-131500000D03*
D10*
%TO.P,J3,2,Pin_2_2*%
%TO.N,/OLED_SCL*%
X144580000Y-131500000D03*
%TO.P,J3,3,Pin_3_3*%
%TO.N,unconnected-(J3-Pin_3-Pad3)*%
X142040000Y-131500000D03*
%TO.P,J3,4,Pin_4_4*%
%TO.N,unconnected-(J3-Pin_4-Pad4)*%
X139500000Y-131500000D03*
%TO.P,J3,5,Pin_5_5*%
%TO.N,/OLED_SDA*%
X136960000Y-131500000D03*
%TO.P,J3,6,Pin_6_6*%
%TO.N,unconnected-(J3-Pin_6-Pad6)*%
X134420000Y-131500000D03*
%TO.P,J3,7,Pin_7_7*%
%TO.N,unconnected-(J3-Pin_7-Pad7)*%
X131880000Y-131500000D03*
%TO.P,J3,8,Pin_8_8*%
%TO.N,unconnected-(J3-Pin_8-Pad8)*%
X129340000Y-131500000D03*
%TO.P,J3,9,Pin_9_9*%
%TO.N,unconnected-(J3-Pin_9-Pad9)*%
X126800000Y-131500000D03*
%TO.P,J3,10,Pin_10_10*%
%TO.N,unconnected-(J3-Pin_10-Pad10)*%
X124260000Y-131500000D03*
%TO.P,J3,11,Pin_11_11*%
%TO.N,unconnected-(J3-Pin_11-Pad11)*%
X121720000Y-131500000D03*
%TO.P,J3,12,Pin_12_12*%
%TO.N,unconnected-(J3-Pin_12-Pad12)*%
X119180000Y-131500000D03*
%TO.P,J3,13,Pin_13_13*%
%TO.N,unconnected-(J3-Pin_13-Pad13)*%
X116640000Y-131500000D03*
%TO.P,J3,14,Pin_14_14*%
%TO.N,GND*%
X114100000Y-131500000D03*
%TO.P,J3,15,Pin_15_15*%
%TO.N,/+3.3V*%
X111560000Y-131500000D03*
%TD*%
D11*
%TO.P,J2,1,Pin_1_1*%
%TO.N,unconnected-(J2-Pin_1-Pad1)*%
X147120000Y-108640000D03*
D10*
%TO.P,J2,2,Pin_2_2*%
%TO.N,unconnected-(J2-Pin_2-Pad2)*%
X144580000Y-108640000D03*
%TO.P,J2,3,Pin_3_3*%
%TO.N,unconnected-(J2-Pin_3-Pad3)*%
X142040000Y-108640000D03*
%TO.P,J2,4,Pin_4_4*%
%TO.N,/ADC_SENSE*%
X139500000Y-108640000D03*
%TO.P,J2,5,Pin_5_5*%
%TO.N,unconnected-(J2-Pin_5-Pad5)*%
X136960000Y-108640000D03*
%TO.P,J2,6,Pin_6_6*%
%TO.N,unconnected-(J2-Pin_6-Pad6)*%
X134420000Y-108640000D03*
%TO.P,J2,7,Pin_7_7*%
%TO.N,unconnected-(J2-Pin_7-Pad7)*%
X131880000Y-108640000D03*
%TO.P,J2,8,Pin_8_8*%
%TO.N,unconnected-(J2-Pin_8-Pad8)*%
X129340000Y-108640000D03*
%TO.P,J2,9,Pin_9_9*%
%TO.N,unconnected-(J2-Pin_9-Pad9)*%
X126800000Y-108640000D03*
%TO.P,J2,10,Pin_10_10*%
%TO.N,unconnected-(J2-Pin_10-Pad10)*%
X124260000Y-108640000D03*
%TO.P,J2,11,Pin_11_11*%
%TO.N,unconnected-(J2-Pin_11-Pad11)*%
X121720000Y-108640000D03*
%TO.P,J2,12,Pin_12_12*%
%TO.N,unconnected-(J2-Pin_12-Pad12)*%
X119180000Y-108640000D03*
%TO.P,J2,13,Pin_13_13*%
%TO.N,unconnected-(J2-Pin_13-Pad13)*%
X116640000Y-108640000D03*
%TO.P,J2,14,Pin_14_14*%
%TO.N,GND*%
X114100000Y-108640000D03*
%TO.P,J2,15,Pin_15_15*%
%TO.N,unconnected-(J2-Pin_15-Pad15)*%
X111560000Y-108640000D03*
%TD*%
%TO.N,/ADC_SENSE*%
D13*
X139500000Y-108640000D02*
X137785000Y-106925000D01*
X137785000Y-106925000D02*
X127823960Y-106925000D01*
X127823960Y-106925000D02*
X126745000Y-105846040D01*
X126745000Y-105846040D02*
X126745000Y-102013299D01*
X104154009Y-147265000D02*
X113655000Y-147265000D01*
X126745000Y-102013299D02*
X127433299Y-101325000D01*
X127433299Y-101325000D02*
X130946701Y-101325000D01*
X130946701Y-101325000D02*
X131635000Y-102013299D01*
X131635000Y-102013299D02*
X131635000Y-104825000D01*
X145755000Y-129846040D02*
X145755000Y-131986701D01*
X131635000Y-104825000D02*
X132385000Y-105575000D01*
X115963299Y-130325000D02*
X115325496Y-130962803D01*
X115325496Y-137923513D02*
X109699009Y-143550000D01*
X132385000Y-105575000D02*
X150176041Y-105575000D01*
X150176041Y-105575000D02*
X150425000Y-105823959D01*
X150425000Y-105823959D02*
X150425000Y-125176040D01*
X103495000Y-146605991D02*
X104154009Y-147265000D01*
X150425000Y-125176040D02*
X145755000Y-129846040D01*
X144093299Y-132675000D02*
X143405000Y-131986701D01*
X145755000Y-131986701D02*
X145066701Y-132675000D01*
X103495000Y-145368604D02*
X103495000Y-146605991D01*
X145066701Y-132675000D02*
X144093299Y-132675000D01*
X143405000Y-131986701D02*
X143405000Y-131013299D01*
X143405000Y-131013299D02*
X142716701Y-130325000D01*
X109699009Y-143550000D02*
X105313604Y-143550000D01*
X105313604Y-143550000D02*
X103495000Y-145368604D01*
X142716701Y-130325000D02*
X115963299Y-130325000D01*
X115325496Y-130962803D02*
X115325496Y-137923513D01*
X113655000Y-147265000D02*
X114780000Y-146140000D01*
%TO.N,/+3.3V*%
D14*
X111560000Y-131500000D02*
X130060000Y-113000000D01*
X130060000Y-113000000D02*
X149500000Y-113000000D01*
%TO.N,GND*%
X125000000Y-105000000D02*
X114000000Y-105000000D01*
X114100000Y-105100000D02*
X114100000Y-108640000D01*
X125380000Y-102500000D02*
X125380000Y-104620000D01*
X125380000Y-104620000D02*
X125000000Y-105000000D01*
X114000000Y-105000000D02*
X114100000Y-105100000D01*
%TO.N,/OLED_SDA*%
X151500000Y-135000000D02*
X137000000Y-135000000D01*
X133000000Y-105000000D02*
X151500000Y-105000000D01*
X137000000Y-135000000D02*
X137000000Y-134000000D01*
X133000000Y-102500000D02*
X133000000Y-105000000D01*
X151500000Y-105000000D02*
X151500000Y-135000000D01*
X137000000Y-134000000D02*
X136960000Y-133960000D01*
X136960000Y-133960000D02*
X136960000Y-131500000D01*
%TO.N,/OLED_SCL*%
X146000000Y-129000000D02*
X144500000Y-129000000D01*
X150000000Y-125000000D02*
X146000000Y-129000000D01*
X150000000Y-106000000D02*
X150000000Y-125000000D01*
X130500000Y-106000000D02*
X150000000Y-106000000D01*
X130460000Y-105960000D02*
X130500000Y-106000000D01*
X144580000Y-129080000D02*
X144580000Y-131500000D01*
X130460000Y-102500000D02*
X130460000Y-105960000D01*
X144500000Y-129000000D02*
X144580000Y-129080000D01*
%TO.N,GND*%
X119500000Y-149000000D02*
X138500000Y-149000000D01*
X119620000Y-146140000D02*
X119620000Y-148880000D01*
X119620000Y-148880000D02*
X119500000Y-149000000D01*
X138500000Y-149000000D02*
X138620000Y-148880000D01*
X138620000Y-148880000D02*
X138620000Y-146140000D01*
X101000000Y-137500000D02*
X114000000Y-137500000D01*
X116360000Y-149400000D02*
X101000000Y-149400000D01*
X101000000Y-149400000D02*
X101000000Y-137500000D01*
X119620000Y-146140000D02*
X116360000Y-149400000D01*
X114000000Y-137500000D02*
X114100000Y-137400000D01*
X114100000Y-137400000D02*
X114100000Y-131500000D01*
%TO.N,Net-(R4-Pad2)*%
D13*
X104620000Y-146140000D02*
X104620000Y-144880000D01*
X104620000Y-144880000D02*
X105500000Y-144000000D01*
X105500000Y-144000000D02*
X128500000Y-144000000D01*
X128500000Y-144000000D02*
X129780000Y-145280000D01*
X129780000Y-145280000D02*
X129780000Y-146140000D01*
%TO.N,/ADC_SENSE*%
X102000000Y-140000000D02*
X102000000Y-148500000D01*
X104540000Y-140140000D02*
X102140000Y-140140000D01*
X102140000Y-140140000D02*
X102000000Y-140000000D01*
X102000000Y-148500000D02*
X112420000Y-148500000D01*
X112420000Y-148500000D02*
X114780000Y-146140000D01*
%TO.N,Net-(R2-Pad2)*%
X119620000Y-140140000D02*
X114700000Y-140140000D01*
%TO.N,Net-(R1-Pad2)*%
X134460000Y-140140000D02*
X129780000Y-140140000D01*
%TO.N,/VBAT*%
X141160000Y-146140000D02*
X141160000Y-143600000D01*
X141160000Y-143600000D02*
X144620000Y-140140000D01*
%TO.N,/+3.3V*%
D14*
X128000000Y-106500000D02*
X149500000Y-106500000D01*
X127920000Y-102500000D02*
X127920000Y-106420000D01*
X127920000Y-106420000D02*
X128000000Y-106500000D01*
X149500000Y-106500000D02*
X149500000Y-113000000D01*
%TD*%
M02*
