M48
; DRILL file KiCad 10.0.6 date 2026-10-06T16:56:13
; FORMAT={-:-/ absolute / metric / decimal}
; #@! TF.CreationDate,2026-10-06T16:56:13-07:00
; #@! TF.GenerationSoftware,Kicad,Pcbnew,10.0.6
; #@! TF.FileFunction,Plated,1,2,PTH
FMAT,2
METRIC
; #@! TA.AperFunction,Plated,PTH,ComponentDrill
T1C0.800
; #@! TA.AperFunction,Plated,PTH,ComponentDrill
T2C1.000
%
G90
G05
T1
X104.54Y-140.14
X104.62Y-146.14
X114.7Y-140.14
X114.78Y-146.14
X119.62Y-140.14
X119.62Y-146.14
X129.78Y-140.14
X129.78Y-146.14
X134.46Y-140.14
X144.62Y-140.14
T2
X111.56Y-108.64
X111.56Y-131.5
X114.1Y-108.64
X114.1Y-131.5
X116.64Y-108.64
X116.64Y-131.5
X119.18Y-108.64
X119.18Y-131.5
X121.72Y-108.64
X121.72Y-131.5
X124.26Y-108.64
X124.26Y-131.5
X125.38Y-102.5
X126.8Y-108.64
X126.8Y-131.5
X127.92Y-102.5
X129.34Y-108.64
X129.34Y-131.5
X130.46Y-102.5
X131.88Y-108.64
X131.88Y-131.5
X133.0Y-102.5
X134.42Y-108.64
X134.42Y-131.5
X136.96Y-108.64
X136.96Y-131.5
X138.62Y-146.14
X139.5Y-108.64
X139.5Y-131.5
X141.16Y-146.14
X142.04Y-108.64
X142.04Y-131.5
X144.58Y-108.64
X144.58Y-131.5
X147.12Y-108.64
X147.12Y-131.5
M30
