%TF.GenerationSoftware,KiCad,Pcbnew,10.0.6*%
%TF.CreationDate,2026-10-06T16:55:34-07:00*%
%TF.ProjectId,BattSense_AFE,42617474-5365-46e7-9365-5f4146452e6b,rev?*%
%TF.SameCoordinates,Original*%
%TF.FileFunction,Soldermask,Bot*%
%TF.FilePolarity,Negative*%
%FSLAX46Y46*%
G04 Gerber Fmt 4.6, Leading zero omitted, Abs format (unit mm)*
G04 Created by KiCad (PCBNEW 10.0.6) date 2026-10-06 16:55:34*
%MOMM*%
%LPD*%
G01*
G04 APERTURE LIST*
%ADD10C,3.200000*%
%ADD11C,1.700000*%
%ADD12R,1.700000X1.700000*%
%ADD13C,1.600000*%
G04 APERTURE END LIST*
D10*
%TO.C,REF\u002A\u002A*%
X156000000Y-146000000D03*
%TD*%
%TO.C,REF\u002A\u002A*%
X156000000Y-104000000D03*
%TD*%
%TO.C,REF\u002A\u002A*%
X104000000Y-104000000D03*
%TD*%
D11*
%TO.C,J1*%
X138620000Y-146140000D03*
D12*
X141160000Y-146140000D03*
%TD*%
D13*
%TO.C,R2*%
X129780000Y-140140000D03*
X119620000Y-140140000D03*
%TD*%
%TO.C,R1*%
X144620000Y-140140000D03*
X134460000Y-140140000D03*
%TD*%
%TO.C,R3*%
X104540000Y-140140000D03*
X114700000Y-140140000D03*
%TD*%
%TO.C,R4*%
X104620000Y-146140000D03*
X114780000Y-146140000D03*
%TD*%
%TO.C,R5*%
X119620000Y-146140000D03*
X129780000Y-146140000D03*
%TD*%
D12*
%TO.C,J4*%
X125380000Y-102500000D03*
D11*
X127920000Y-102500000D03*
X130460000Y-102500000D03*
X133000000Y-102500000D03*
%TD*%
D12*
%TO.C,J3*%
X147120000Y-131500000D03*
D11*
X144580000Y-131500000D03*
X142040000Y-131500000D03*
X139500000Y-131500000D03*
X136960000Y-131500000D03*
X134420000Y-131500000D03*
X131880000Y-131500000D03*
X129340000Y-131500000D03*
X126800000Y-131500000D03*
X124260000Y-131500000D03*
X121720000Y-131500000D03*
X119180000Y-131500000D03*
X116640000Y-131500000D03*
X114100000Y-131500000D03*
X111560000Y-131500000D03*
%TD*%
D12*
%TO.C,J2*%
X147120000Y-108640000D03*
D11*
X144580000Y-108640000D03*
X142040000Y-108640000D03*
X139500000Y-108640000D03*
X136960000Y-108640000D03*
X134420000Y-108640000D03*
X131880000Y-108640000D03*
X129340000Y-108640000D03*
X126800000Y-108640000D03*
X124260000Y-108640000D03*
X121720000Y-108640000D03*
X119180000Y-108640000D03*
X116640000Y-108640000D03*
X114100000Y-108640000D03*
X111560000Y-108640000D03*
%TD*%
M02*
